<?xml version="1.0" encoding="utf-8"?>
<!-- Generator: Adobe Illustrator 23.0.1, SVG Export Plug-In . SVG Version: 6.00 Build 0)  -->
<svg version="1.1" id="Camada_1" xmlns="http://www.w3.org/2000/svg" xmlns:xlink="http://www.w3.org/1999/xlink" x="0px" y="0px"
	 viewBox="0 0 522.5 292.9" style="enable-background:new 0 0 522.5 292.9;" xml:space="preserve">
<style type="text/css">
	.st0{fill-rule:evenodd;clip-rule:evenodd;fill:#FFFFFF;}
	.st1{fill:#FFFFFF;}
</style>
<polygon class="st0" points="319.9,58.2 321.6,59 323.4,59.8 325.1,60.5 326.8,61.3 328.6,62 330.4,62.7 332.2,63.4 334,64 
	335.7,64.6 337.6,65.2 339.4,65.8 341.2,66.4 343,67 344.8,67.5 346.7,68 348.5,68.6 351,69.2 353.5,69.8 356,70.4 358.5,70.9 
	361,71.4 363.6,71.8 366.1,72.2 368.7,72.5 371.3,72.7 373.9,72.9 376.5,73 379.1,73.1 381.8,73.1 384.4,73.1 387.1,73 389.7,72.7 
	392.4,72.5 395.1,72.1 397.8,71.7 400.5,71.3 403.2,70.7 406,70.1 408.7,69.3 411.5,68.6 414.3,67.7 417,66.7 419.8,65.7 
	422.6,64.6 425.4,63.4 428.2,62 431.1,60.7 433.9,59.2 435.7,58.2 437.5,57.2 439.2,56.1 441,55.1 442.7,54 444.3,53 445.9,51.9 
	447.5,50.8 449,49.7 450.5,48.6 452,47.5 453.4,46.4 454.9,45.2 456.2,44.1 457.6,43 458.9,41.9 460.1,40.8 461.3,39.7 462.5,38.6 
	463.7,37.5 464.8,36.4 465.9,35.4 466.9,34.3 467.9,33.3 468.9,32.3 469.8,31.3 470.7,30.3 471.6,29.3 473.1,27.4 474.5,25.7 
	474.9,25.2 475.4,24.7 475.8,24.3 476.2,23.9 476.6,23.5 477.1,23.1 477.6,22.8 478,22.5 478.5,22.2 479,22 479.5,21.7 480,21.5 
	480.5,21.3 481,21.1 481.6,21 482.1,20.9 482.6,20.7 483.2,20.6 483.7,20.6 484.3,20.5 484.8,20.5 485.4,20.5 486,20.5 486.5,20.5 
	487.1,20.5 487.6,20.6 488.2,20.6 488.8,20.7 489.9,20.9 491,21.2 494.1,22.2 496.9,23.3 499.2,24.4 501.2,25.7 502.8,27.1 
	504.1,28.5 505.1,30 505.8,31.6 506.2,33.2 506.4,34.9 506.2,36.7 505.9,38.4 505.3,40.2 504.4,42 503.4,43.9 502.3,45.7 
	500.9,47.6 499.4,49.4 497.7,51.3 495.9,53.1 494,54.9 492,56.6 489.9,58.3 487.8,60 485.6,61.6 483.4,63.1 481.1,64.6 478.8,66 
	476.5,67.3 474.3,68.6 472.1,69.7 469.9,70.7 467.6,71.7 465.2,72.7 462.8,73.7 460.4,74.6 458,75.5 455.5,76.2 453,77 450.6,77.7 
	448.1,78.4 445.6,79.1 443.1,79.7 440.6,80.2 438,80.7 435.5,81.2 432.9,81.6 430.4,82 426.6,82.5 422.7,83 418.8,83.3 415,83.5 
	411.2,83.7 407.3,83.8 403.5,83.8 399.7,83.7 395.9,83.5 392.1,83.3 388.3,83 384.5,82.6 380.8,82.2 377.1,81.6 373.4,81 
	369.8,80.3 366.2,79.6 362.6,78.8 359.1,77.9 355.6,77 352.1,76 348.8,75 345.4,73.8 342.1,72.6 338.9,71.4 335.7,70.1 332.6,68.8 
	329.5,67.4 326.5,65.9 323.6,64.4 320.8,62.9 318,61.3 316.5,60.4 315.2,59.6 313.9,58.8 312.7,58 311.7,57.3 310.7,56.7 
	309.8,56.1 309,55.5 308,54.8 307.3,54.3 306.7,53.8 306.3,53.4 306,53.1 305.9,52.9 305.8,52.7 305.9,52.6 306.1,52.5 306.4,52.6 
	306.8,52.6 307.3,52.8 308.4,53.2 309.8,53.7 311.3,54.3 312.9,55 314.5,55.6 316,56.3 317.4,57 318.5,57.5 319.4,57.9 "/>
<polygon class="st1" points="256.9,6 256.7,6.4 256.7,7.1 256.7,8 256.8,9.2 257.1,10.6 257.5,12.3 258,14.2 258.7,16.2 259.4,18.5 
	260.3,21 261.3,23.6 262.4,26.4 263.6,29.3 265,32.4 266.5,35.6 268.1,38.8 269.9,42.2 271.7,45.7 273.7,49.2 275.8,52.8 
	278.1,56.5 280.4,60.2 282.9,63.9 285.5,67.6 288.3,71.3 291.2,75 298.2,83.3 305.4,90.8 312.9,97.6 320.5,103.7 328.3,109.1 
	336.2,113.7 344.2,117.7 352.3,121.1 360.4,123.8 368.6,125.9 376.8,127.4 385,128.3 393.1,128.6 401.1,128.4 409.1,127.7 
	417,126.5 424.7,124.7 432.2,122.5 439.6,119.8 446.8,116.7 453.7,113.2 460.3,109.3 466.7,105 472.8,100.3 478.6,95.2 483.9,89.9 
	488.9,84.2 493.5,78.2 497.7,71.9 501.4,65.4 504.6,58.7 507.4,51.7 507.7,50.6 508,49.7 508.2,48.9 508.3,48.3 508.3,48 
	508.4,47.8 508.3,47.6 508.3,47.4 508.2,47.3 508.1,47.2 508.1,47.2 507.9,47.2 507.8,47.2 507.6,47.2 507.4,47.4 507.2,47.5 
	506.7,48 506.2,48.6 505.5,49.4 504.7,50.4 503.9,51.6 502.9,53 502,54.1 501.1,55.3 500.2,56.5 499.2,57.6 498.2,58.7 497.2,59.8 
	496.1,60.9 495,62 493.9,63 492.7,64 491.5,65.1 490.3,66.1 489,67 487.7,68 486.4,68.9 485.1,69.8 483.8,70.7 482.4,71.6 481,72.4 
	479.6,73.3 478.1,74.1 476.7,74.9 475.2,75.7 473.8,76.4 472.3,77.2 470.7,77.9 469.2,78.6 467.7,79.3 466.2,79.9 464.6,80.6 
	463.1,81.2 461.5,81.8 454.9,84 448.2,86 441.4,87.7 434.5,89 427.5,90.1 420.4,90.8 413.3,91.2 406.2,91.4 399,91.2 391.9,90.7 
	384.7,89.9 377.6,88.9 370.5,87.6 363.4,85.9 356.4,84 349.5,81.8 342.7,79.3 336,76.6 329.4,73.5 322.9,70.2 316.6,66.6 
	310.4,62.8 304.4,58.7 298.6,54.3 293,49.6 287.6,44.7 282.4,39.6 277.5,34.2 272.8,28.5 268.4,22.6 264.3,16.5 260.5,10.1 
	259.6,8.6 258.9,7.4 258.2,6.6 257.7,6.1 257.3,5.9 "/>
<path class="st1" d="M384.3,227.7l-0.4-0.1l-0.4-0.1l-0.4-0.1l-0.4-0.1l-0.4-0.1l-0.3-0.2l-0.3-0.2l-0.3-0.2l-0.2-0.2l-0.2-0.2
	l-0.2-0.2l-0.2-0.2l-0.1-0.2l-0.1-0.2l-0.1-0.2l0-0.3l-0.1-0.3v-0.3v-0.3v-0.3l0.1-0.6l0.1-0.6l0.2-0.6l0.2-0.7l0.2-0.7l0.2-0.7
	l0.5-1.4l0.5-1.5l0.6-1.7l0.6-1.6l0.3-0.8l0.3-0.8l0.3-0.8l0.3-0.7l0.4-0.7l0.4-0.7l0.4-0.7l0.4-0.7l0.4-0.7l0.4-0.6l0.4-0.6
	l0.5-0.6l0.8-0.9l0.8-0.8l0.8-0.8l0.8-0.7l0.8-0.7l0.9-0.6l0.9-0.6l0.9-0.5l0.5-0.2l0.5-0.2l0.5-0.2l0.5-0.2l1-0.3l1-0.3l1-0.2
	l1.1-0.1l1.1-0.1l1.1,0l1,0l0.9,0.1l0.9,0.1l0.9,0.2l0.8,0.2l0.8,0.3l0.8,0.3l0.7,0.4l0.3,0.2l0.3,0.2l0.3,0.2l0.3,0.3l0.3,0.3
	l0.3,0.3l0.3,0.3l0.3,0.3l0.5,0.7l0.5,0.7l0.4,0.8l0.4,0.8l0.3,0.5l0.3,0.6l0.2,0.6l0.2,0.6l0.2,0.6l0.2,0.6l0.2,0.7l0.2,0.7
	l0.1,0.7l0.1,0.7l0.1,0.7l0.1,0.8l0.1,0.8l0,0.8l0,0.8v0.8v1l0,1l0,1l-0.1,1l-0.1,1.1l-0.1,1.1l-0.1,1.1l-0.2,1.1l-0.1,0.3l-0.1,0.3
	l-0.1,0.3l-0.1,0.2l-0.2,0.2l-0.2,0.2l-0.2,0.2l-0.2,0.2l-0.2,0.2l-0.2,0.2l-0.3,0.1l-0.3,0.2l-0.6,0.2l-0.6,0.2l-0.7,0.2l-0.7,0.1
	l-0.8,0.1l-0.8,0.1l-0.8,0l-0.8,0h-0.8l-0.9,0l-2.4-0.1l-2.3-0.1l-2.2-0.1l-2.2-0.1l-1.1,0H395h-1.1h-1.1l-1.1,0l-1.2,0.1l-1.2,0.1
	l-1.2,0.1l-1,0.1l-1,0.1h-0.9L384.3,227.7z M288.6,236.9l-0.6,0l-0.6-0.1l-0.6-0.1l-0.6-0.1l-0.5-0.1l-0.5-0.1l-0.5-0.1l-0.5-0.2
	l-0.5-0.2l-0.5-0.2l-0.4-0.2l-0.4-0.2l-0.4-0.2l-0.4-0.2l-0.4-0.3l-0.4-0.3l-0.4-0.3l-0.3-0.3l-0.3-0.3l-0.3-0.3l-0.3-0.3l-0.3-0.4
	l-0.3-0.4l-0.3-0.4l-0.3-0.4l-0.2-0.4l-0.2-0.5l-0.2-0.4l-0.2-0.5l-0.2-0.5l-0.2-0.5l-0.1-0.5l-0.2-0.5l-0.1-0.6l-0.1-0.6l-0.1-0.6
	l-0.1-0.7l-0.1-0.7l-0.1-1.4l-0.1-1.5l0-1.6l0.1-1.7l0.1-1.8l0.2-1.8l0.2-1.9l0.3-2l0.3-2.1l0.4-2.2l0.4-2.3l0.5-2.3l0.6-2.5
	l0.6-2.4l0.6-2.4l0.6-2.3l0.6-2.2l0.6-2.1l0.7-2l0.7-1.9l0.7-1.8l0.7-1.7l0.7-1.6l0.7-1.5l0.8-1.4l0.8-1.3l0.4-0.6l0.4-0.6l0.4-0.6
	l0.4-0.6l0.4-0.5l0.4-0.5l0.4-0.5l0.4-0.5l0.5-0.5l0.4-0.4l0.5-0.4l0.5-0.4l0.5-0.4l0.5-0.4l0.5-0.3l0.5-0.4l0.5-0.3l0.5-0.3
	l0.5-0.3l0.5-0.3l0.6-0.3l0.5-0.3l0.6-0.2l0.6-0.2l0.6-0.2l0.6-0.2l0.6-0.2l0.6-0.1l0.6-0.1l0.6-0.1l0.6-0.1l0.6-0.1l0.7-0.1l0.7,0
	l0.7,0h0.7h0.6l0.6,0l0.6,0l0.6,0l0.6,0.1l0.6,0.1l0.5,0.1l0.5,0.1l0.5,0.1l0.5,0.2l0.5,0.2l0.5,0.2l0.4,0.2l0.4,0.2l0.4,0.2
	l0.4,0.2l0.4,0.3l0.4,0.3l0.4,0.3l0.3,0.3l0.3,0.3l0.3,0.3l0.3,0.3l0.3,0.3l0.3,0.4l0.3,0.4l0.3,0.4l0.2,0.4l0.2,0.4l0.2,0.4
	l0.2,0.4l0.2,0.5l0.2,0.5l0.2,0.5l0.1,0.5l0.1,0.5l0.1,0.6l0.1,0.6l0.1,0.6l0.1,0.6l0.1,1.3l0,1.4v1.5l0,1.6l-0.1,1.7l-0.2,1.8
	l-0.2,1.8l-0.3,1.9l-0.3,2l-0.3,2.1l-0.4,2.2l-0.5,2.3l-0.6,2.6l-0.6,2.5l-0.6,2.4l-0.6,2.4l-0.6,2.2l-0.7,2.1l-0.7,2l-0.7,1.9
	l-0.7,1.8l-0.7,1.8l-0.8,1.6l-0.8,1.6l-0.8,1.4l-0.8,1.3l-0.4,0.7l-0.4,0.6l-0.4,0.6l-0.4,0.6l-0.4,0.5l-0.4,0.5l-0.4,0.5l-0.4,0.5
	l-0.5,0.5l-0.4,0.5l-0.5,0.4l-0.5,0.4l-0.5,0.4l-0.5,0.4l-0.5,0.4l-0.5,0.4l-0.5,0.3l-0.5,0.3l-0.5,0.3l-0.5,0.3l-0.6,0.3l-0.6,0.3
	l-0.6,0.2l-0.6,0.2l-0.6,0.2l-0.6,0.2l-0.6,0.2l-0.6,0.1l-0.6,0.1l-0.6,0.1l-0.6,0.1l-0.7,0.1l-0.7,0.1l-0.7,0l-0.7,0h-0.7h-0.6
	L288.6,236.9z M508.1,104h-0.8l-1.8,0.1l-2.2,0.2l-0.9,0.1l-0.8,0.1l-0.7,0.1l-0.7,0.1l-0.7,0l-0.7,0h-0.7h-0.8h-0.9h-0.9l-0.9,0
	l-0.9,0l-0.9,0l-0.9-0.1l-0.9-0.1l-0.9-0.1l-2-0.2l-1.7-0.1l-0.8,0H485h-0.6l-0.5,0l-0.5,0.1l-0.4,0.1l-0.4,0.1l-0.3,0.1l-0.3,0.2
	l-0.3,0.2l-0.2,0.2l-0.2,0.3l-0.2,0.3l-0.2,0.3l-0.1,0.4l-0.1,0.4l-0.2,0.9l-0.2,1.1l-0.1,1.3l-0.2,1.4l-0.2,1.7l-0.3,1.9l-0.4,2.5
	l-0.3,2l-0.3,1.7l-0.3,1.6l-0.3,1.6l-0.3,1.8l-0.4,2.1l-0.5,2.7l-0.4,2.3l-0.4,2.3l-0.4,2.4l-0.5,2.4l-0.4,2.4l-0.5,2.4l-0.5,2.5
	l-0.5,2.5l-0.5,2.5l-0.5,2.6l-0.5,2.6l-0.5,2.6l-0.5,2.7l-0.6,2.7l-0.6,2.7l-0.6,2.8l-0.5,2.6l-0.6,2.6l-0.5,2.5l-0.5,2.5l-0.5,2.5
	l-0.5,2.5l-0.5,2.5l-0.5,2.4l-0.6,2.4l-0.5,2.4l-0.5,2.4l-0.5,2.4l-0.5,2.4l-0.5,2.3l-0.5,2.3l-0.5,2.3l-0.3,1.1l-0.3,1.1l-0.3,1.1
	l-0.3,1.1l-0.3,1.1l-0.3,1.1l-0.3,1.1l-0.3,1.1l-0.2,0.8l-0.2,0.8l-0.2,0.8l-0.3,0.8l-0.3,0.7l-0.3,0.7l-0.3,0.7l-0.3,0.7l-0.3,0.7
	l-0.4,0.7l-0.4,0.6l-0.4,0.7l-0.4,0.6l-0.4,0.6l-0.4,0.6l-0.5,0.6l-0.5,0.6l-0.5,0.5l-0.5,0.5l-0.5,0.5l-0.5,0.5l-0.5,0.5l-0.5,0.4
	l-0.5,0.4l-0.6,0.4l-0.6,0.4l-0.5,0.3l-0.6,0.3l-0.6,0.3l-0.6,0.3l-0.6,0.3l-0.6,0.3l-0.4,0.1l-0.4,0.1l-0.4,0.1l-0.5,0.1l-1.1,0.2
	l-1.1,0.1l-1.1,0.1l-1,0.1h-0.8h-0.6l-0.5-0.1l-0.4-0.1l-0.3-0.1l-0.3-0.1l-0.2-0.2l-0.1-0.2l-0.1-0.3l0-0.3v-0.2l0.1-0.3l0.1-0.3
	l0.1-0.3l0.3-0.8l0.4-0.8l0.5-1l0.4-1l0.4-1l0.4-1l0.3-1l0.3-1l0.3-1l0.3-1l0.2-1.1l0.2-1.1l0.1-1.1l0.1-1.1l0-1.2l0-1.3l0-1.3
	l-0.1-1.3l-0.1-1.1l-0.1-1.2l-0.2-1.1l-0.2-1.1l-0.3-1.1l-0.3-1.2l-0.3-1.1l-0.4-1.1l-0.5-1.1l-0.5-1.1l-0.6-1.1l-0.7-1l-0.7-1
	l-0.8-1l-0.8-1l-0.9-0.9l-1-0.9l-1.1-0.8l-1.2-0.8l-1.3-0.8l-1.3-0.7l-1.4-0.7l-1.5-0.6l-1.6-0.6l-1.7-0.5l-1.8-0.4l-1.9-0.4
	l-2.1-0.3l-2.2-0.3l-2.3-0.2l-2.4-0.1l-2.5,0l-2.5,0l-2.4,0.1l-2.3,0.2l-2.2,0.2l-2.2,0.3l-2.1,0.4l-2,0.4l-1.9,0.5l-1.8,0.6
	l-1.8,0.6l-1.7,0.7l-1.7,0.8l-1.6,0.8l-1.5,0.8l-1.5,0.9l-1.4,1l-1.4,1l-1.4,1.1l-1.3,1.1l-1.3,1.2l-1.3,1.2l-1.3,1.3l-1.3,1.3
	l-1.3,1.3l-1.3,1.4L361,211l-1.2,1.5l-1.3,1.5L356,217l-2.6,3.3l-1.1,1.4l-1.1,1.5l-1,1.5l-1.1,1.6l-1.1,1.6l-1.1,1.6l-0.6,0.8
	l-0.6,0.8l-0.6,0.8l-0.6,0.7l-0.7,0.8l-0.7,0.7l-0.7,0.7l-0.8,0.7l-0.8,0.6l-0.8,0.6l-0.8,0.6l-0.8,0.5l-0.9,0.5l-0.9,0.5l-1,0.4
	l-1,0.4l-1,0.3l-1.1,0.3l-1.2,0.3l-1.2,0.2l-1.3-0.1l-1.2,0l-1-0.1l-0.8-0.1l-0.4-0.1l-0.3-0.1l-0.3-0.1l-0.3-0.1l-0.2-0.1l-0.2-0.1
	l-0.2-0.1l-0.1-0.2l-0.1-0.2v-0.2l0-0.2l0.1-0.2l0.1-0.3l0.2-0.2l0.2-0.3l0.2-0.3l0.6-0.8l0.8-0.8l0.9-1l1.1-1.2l1-1.1l1-1.1l1-1.1
	l0.9-1.1l0.9-1.1l0.9-1.1l0.8-1.1l0.8-1l0.8-1.1l0.8-1.1l0.8-1l0.7-1.1l0.7-1.1l0.7-1.1l0.6-1.1l0.6-1.1l0.6-1.1l0.6-1.1l0.5-1.2
	l0.5-1.1l0.5-1.2l0.5-1.2l0.5-1.2l0.4-1.3l0.4-1.3l0.4-1.3l0.4-1.3l0.4-1.3l0.4-1.4l0.3-1.4l0.3-1.4l0.3-1.5l0.3-1.3l0.2-1.2
	l0.2-1.2l0.2-1.2l0.2-1.2l0.2-1.2l0.1-1.2l0.1-1.1l0.1-1.1l0-1.1v-1.1v-1.1l0-1.1l-0.1-1l-0.1-1l-0.1-1l-0.2-1l-0.2-1l-0.2-0.9
	l-0.2-1l-0.2-0.9l-0.3-0.9l-0.3-0.9l-0.3-0.9l-0.3-0.8l-0.3-0.8l-0.4-0.8l-0.4-0.8l-0.4-0.8l-0.4-0.8l-0.5-0.8l-0.5-0.8l-0.5-0.7
	l-0.5-0.7l-0.6-0.7l-0.6-0.7l-0.6-0.6l-0.6-0.6l-0.6-0.6l-0.7-0.6l-0.7-0.5l-0.7-0.5l-0.7-0.5l-0.7-0.5l-0.8-0.4l-0.8-0.4l-0.8-0.4
	l-0.8-0.4l-0.8-0.4l-0.8-0.3l-0.9-0.3l-0.9-0.3l-0.9-0.3l-0.9-0.3l-0.9-0.2l-1-0.2l-1-0.2l-1-0.2l-1-0.1l-1-0.1l-1.1-0.1l-1.1,0
	l-1.1,0l-1.1,0h-1.2l-1.1,0.1l-1.1,0l-1.1,0.1l-1.1,0.1l-1.1,0.1l-1.1,0.1l-1,0.2l-1,0.2l-1,0.2l-1,0.2l-1,0.3l-1,0.3l-0.9,0.3
	l-0.9,0.3l-0.9,0.3l-1.4,0.5l-1.3,0.6l-1.2,0.6l-1.1,0.6l-1.1,0.6l-0.9,0.6l-0.9,0.5l-0.8,0.5l-1.4,0.9l-1.2,0.8l-0.5,0.3l-0.4,0.3
	l-0.4,0.2l-0.3,0.1l-0.3,0.1l-0.2-0.1l-0.1-0.1l-0.1-0.2l0-0.3v-0.4l0.1-0.5l0.1-0.7l0.3-1.7l0.5-2.3l0.6-2.9l0.8-3.5l3.4-15.8
	l0.3-1.7l0.4-1.7l0.4-1.7l0.4-1.7l0.4-1.7l0.4-1.8l0.4-1.8l0.4-1.8l0.3-1l0.3-1l0.3-0.9l0.3-0.9l0.6-1.7l0.6-1.6l0.5-1.4l0.5-1.3
	l0.2-0.6l0.2-0.5l0.1-0.5l0.1-0.5l0-0.4l0-0.4l-0.1-0.4l-0.2-0.3l-0.2-0.3l-0.3-0.3L300,106l-0.4-0.2l-0.5-0.2l-0.6-0.1l-0.7-0.1
	l-0.8-0.1h-0.9h-1l-1.1,0.1l-1.2,0.1l-0.9,0.1l-0.9,0.1l-0.9,0l-0.9,0.1l-0.9,0h-0.8l-0.8,0h-0.8H285h-0.8l-0.8,0l-0.8,0l-0.8,0
	l-0.8-0.1l-0.8-0.1l-0.9-0.1l-1.8-0.1l-1.5-0.1l-1.3-0.1h-1h-0.4l-0.4,0l-0.3,0.1l-0.3,0.1l-0.3,0.1l-0.2,0.1l-0.2,0.1l-0.2,0.2
	l-0.1,0.2l-0.1,0.3l-0.1,0.3L271,107l-0.1,0.8l-0.1,0.9l0,1.1l-0.1,1.3l-0.2,1.5l-0.2,1.7l-0.3,2.2l-0.3,2.2l-0.3,2.3l-0.4,2.3
	l-0.4,2.4l-0.4,2.4l-0.4,2.5l-0.4,2.5l-0.4,2.1l-0.4,2.2l-0.4,2.2l-0.4,2.3l-0.4,2.4l-0.5,2.4l-0.5,2.5l-0.5,2.5l-0.5,2.6l-0.5,2.7
	l-0.6,2.7l-0.6,2.8l-0.6,2.9l-0.6,2.9l-0.6,3l-0.6,3l-0.7,3.1l-0.6,3l-0.6,2.9l-0.6,2.9l-0.6,2.8l-0.6,2.7l-0.6,2.7l-0.6,2.6
	l-0.6,2.5l-0.6,2.5l-0.5,2.4l-0.5,2.4l-0.5,2.3l-0.5,2.2l-0.5,2.1l-0.5,2.1l-1.3,5.2l-1.1,4.5l-1,3.9l-0.8,3.2l-0.7,2.7l-0.5,2.2
	l-0.2,0.9l-0.2,0.8l-0.1,0.7l-0.1,0.6v0.5l0,0.4l0.1,0.3l0.1,0.3l0.2,0.2l0.2,0.1l0.3,0l0.3,0l0.3-0.1l0.4-0.1l0.4-0.2l0.5-0.2
	l1.1-0.5l1.3-0.6l1-0.4l1.1-0.4l0.6-0.2l0.6-0.2l0.6-0.2l0.7-0.2l0.6-0.1l0.7-0.1l0.7-0.1l0.7-0.1l0.8-0.1l0.8-0.1h0.8l0.8,0l0.8,0
	l0.9,0.1l0.9,0.1l0.9,0.2l0.9,0.2l1,0.2l1,0.3l1,0.3l1.1,0.3l1.1,0.4l1.1,0.4l1.1,0.5l1.2,0.6l1.2,0.6l1.2,0.6l1.3,0.7l1.5,0.7
	l1.6,0.7l1.7,0.6l1.8,0.6l1.9,0.6l2,0.5l2.1,0.4l2.1,0.4l2.2,0.4l2.2,0.3l2.3,0.3l2.3,0.3l2.4,0.2l2.3,0.2l2.4,0.1l2.4,0.1l2.4,0.1
	h2.4l2.4,0l2.4-0.1l2.3-0.1l2.3-0.2l2.3-0.2l2.2-0.3l2.2-0.3l2.1-0.3l2-0.4l2-0.4l1.9-0.5l1.8-0.5l1.7-0.6l1.6-0.6l0.9-0.4l0.8-0.4
	l0.6-0.4l0.5-0.3l0.4-0.3l0.3-0.2l0.1,0h0.1h0.1l0.1,0.1l0.1,0.1l0.1,0.1l0.1,0.2l0,0.2l0.1,0.6l0.1,0.8l0.1,1l0.1,1.3l0.1,1.6
	l0.2,1.9l0.2,1.6l0.2,1.6l0.3,1.5l0.3,1.5l0.4,1.5l0.4,1.4l0.5,1.4l0.5,1.4l0.6,1.3l0.6,1.3l0.7,1.3l0.8,1.2l0.8,1.2l0.9,1.2
	l0.9,1.1l0.9,1.1l0.8,0.8l0.8,0.8l0.8,0.8l0.8,0.7l0.9,0.7l0.8,0.7l0.9,0.7l0.9,0.6l0.9,0.6l1,0.6l1,0.5l1,0.5l1,0.5l1.1,0.5
	l1.1,0.4l1.1,0.4l1.1,0.4l1.2,0.3l1.2,0.3l1.2,0.3l1.2,0.3l1.3,0.2l1.3,0.3l1.3,0.2l1.3,0.2l1.3,0.2l1.4,0.2l1.4,0.1l1.4,0.1
	l1.4,0.1l1.5,0.1h1.5l2.9-0.1l2.8-0.2l2.7-0.3l2.6-0.3l2.4-0.4l2.3-0.5l2.2-0.6l2.1-0.6l2-0.7l1.8-0.8l1.8-0.8l1.6-0.8l1.5-0.8
	l1.4-0.8l1.3-0.8l1.2-0.9l1-0.8l0.9-0.8l0.8-0.8l0.7-0.8l0.6-0.8l0.5-0.8l0.4-0.7l0.3-0.7l0.2-0.6l0.1-0.5l0-0.5l-0.1-0.4l-0.2-0.3
	l-0.3-0.2l-0.4-0.1h-0.5l-0.8,0.1l-0.8,0.1l-0.8,0.2l-0.8,0.2l-0.8,0.2l-0.8,0.2l-0.7,0.2l-0.7,0.3l-1.4,0.5l-1.4,0.5l-1.4,0.5
	l-1.4,0.6l-1.4,0.6l-1.4,0.5l-0.8,0.3l-0.8,0.2l-0.8,0.3l-0.8,0.2l-0.8,0.2l-0.8,0.2l-0.8,0.2l-0.8,0.1l-0.9,0.1l-0.9,0.1l-0.9,0.1
	h-0.9h-0.9l-0.9,0l-0.9,0l-0.8-0.1l-0.8-0.1l-0.8-0.1l-0.8-0.1l-0.8-0.2l-0.8-0.2l-0.8-0.2l-0.8-0.2l-0.8-0.2l-0.7-0.2L394,272
	l-0.7-0.3l-0.7-0.3l-0.7-0.3l-0.7-0.3l-0.6-0.3l-0.6-0.4l-0.6-0.4l-0.6-0.4l-0.6-0.4l-0.6-0.4l-0.6-0.5l-0.5-0.5L386,267l-0.5-0.5
	l-0.5-0.5l-0.5-0.5l-0.5-0.6l-0.4-0.6l-0.5-0.7l-0.4-0.7l-0.4-0.7l-0.4-0.7l-0.4-0.7l-0.4-0.7l-0.3-0.7l-0.3-0.8l-0.3-0.8l-0.3-0.8
	l-0.3-0.8l-0.2-0.8l-0.2-0.8l-0.2-0.8l-0.2-0.8l-0.2-0.9l-0.2-1l-0.1-0.9l0-0.9l0-0.8l0.1-0.4l0-0.4l0.1-0.4l0.1-0.4l0.1-0.3
	l0.1-0.3l0.1-0.3l0.1-0.3l0.3-0.6l0.4-0.6l0.4-0.5l0.4-0.5l0.5-0.5l0.5-0.4l0.6-0.4l0.6-0.4l0.8-0.4l0.8-0.4l0.8-0.3l0.8-0.3
	l0.8-0.3l0.9-0.2l0.9-0.2l0.9-0.1l0.9-0.1l0.9-0.1l1,0l1,0h1l1,0l1,0l1,0.1l1.6,0.1l1.6,0.1l1.6,0.2l1.6,0.2l1.6,0.2l1.6,0.2
	l1.6,0.3l1.6,0.3l1.6,0.3l1.6,0.3l1.6,0.3l1.6,0.3l1.6,0.3l1.6,0.3l1.6,0.3l1.6,0.3l2.3,0.4l2.4,0.4l2.4,0.4l2.4,0.4l2.4,0.4
	l2.5,0.3l2.5,0.3l2.5,0.3l2.5,0.2l2.5,0.2l2.5,0.1l2.4,0.1l2.4,0l2.4-0.1l2.3-0.1l2.3-0.2l2.2-0.3l2.2-0.3l2.1-0.4l2-0.5l1.9-0.6
	l1.8-0.7l1.7-0.8l1.6-0.9l1.5-1.1l1.3-1.2l1.2-1.3l1.1-1.4l0.9-1.6l0.8-1.7l0.6-1.9l0.5-2l0.3-1.7l0.3-1.7l0.3-1.7l0.3-1.7l0.3-1.7
	l0.3-1.7l0.3-1.7l0.3-1.7l0.4-2.1l0.4-2.1l0.4-2.1l0.4-2.1l0.4-2.1l0.4-2.1l0.4-2.1l0.4-2.1l0.3-1.7l0.3-1.7l0.3-1.7l0.3-1.8
	l0.3-1.8l0.3-1.8l0.4-1.8l0.3-1.8l0.4-1.8l0.4-1.8l0.4-1.8l0.4-1.9l0.4-1.8l0.4-1.9l0.4-1.9l0.4-1.9l0.5-2.6l0.5-2.6l0.6-2.6
	l0.5-2.5l0.5-2.5l0.5-2.5l0.5-2.5l0.5-2.4l0.5-2.4l0.5-2.4l0.5-2.4l0.5-2.4l0.5-2.4l0.5-2.3l0.5-2.3l0.5-2.3l0.6-2.5l0.5-2.1
	l0.5-1.7l0.4-1.6l0.4-1.5l0.5-1.7l0.5-2l0.6-2.4l0.3-1l0.3-0.9l0.3-0.9l0.3-0.8l0.5-1.5l0.5-1.3l0.4-1.2l0.3-1l0.1-0.4l0.1-0.4
	l0-0.4v-0.3l-0.1-0.3l-0.1-0.3l-0.2-0.2l-0.2-0.2l-0.3-0.2l-0.3-0.2l-0.4-0.1l-0.5-0.1l-0.5-0.1l-0.6,0H508.1z M182.9,237.8
	l-0.7-0.1l-0.7-0.1l-0.6-0.1l-0.6-0.1l-0.6-0.1l-0.6-0.1l-0.6-0.2l-0.5-0.2l-0.5-0.2l-0.5-0.2l-0.5-0.3l-0.5-0.2l-0.5-0.3l-0.4-0.3
	l-0.4-0.3l-0.4-0.3l-0.4-0.3l-0.4-0.3l-0.3-0.4l-0.3-0.4l-0.3-0.4l-0.3-0.4l-0.3-0.4l-0.3-0.5l-0.3-0.5l-0.3-0.5l-0.2-0.5l-0.2-0.5
	l-0.2-0.5l-0.2-0.6l-0.2-0.6l-0.2-0.6l-0.1-0.6l-0.1-0.7l-0.1-0.7l-0.1-0.7l-0.1-0.8l-0.1-0.8l-0.1-0.8l0-0.8l0-0.8v-1.8l0.1-1.8
	l0.1-1.9l0.2-2l0.2-2.1l0.3-2.2l0.4-2.3l0.4-2.4l0.5-2.5l0.5-2.6l0.6-2.6l0.6-2.5l0.6-2.4l0.6-2.4l0.6-2.3l0.7-2.2l0.7-2l0.7-1.9
	l0.7-1.8l0.7-1.8l0.8-1.6l0.8-1.6l0.4-0.7l0.4-0.7l0.4-0.7l0.4-0.7l0.4-0.6l0.4-0.6l0.4-0.6l0.4-0.6l0.4-0.6l0.4-0.5l0.5-0.5
	l0.4-0.5l0.5-0.5l0.5-0.5l0.5-0.4l0.5-0.4l0.5-0.4l0.5-0.4l0.5-0.4l0.5-0.3l0.5-0.3l0.5-0.3l0.6-0.3l0.6-0.3l0.6-0.3l0.6-0.2
	l0.6-0.3l0.6-0.2l0.6-0.2l0.6-0.2l0.6-0.2l0.6-0.1l0.7-0.1l0.7-0.1l0.7-0.1l0.7-0.1l0.7-0.1l0.7-0.1l0.7,0h0.7h0.7l0.7,0l0.7,0.1
	l0.7,0.1l0.7,0.1l0.6,0.1l0.6,0.1l0.6,0.1l0.6,0.2l0.6,0.2l0.6,0.2l0.5,0.2l0.5,0.2l0.5,0.2l0.5,0.2l0.5,0.3l0.4,0.3l0.4,0.3
	l0.4,0.3l0.4,0.3l0.4,0.3l0.4,0.4l0.3,0.4l0.3,0.4l0.3,0.4l0.3,0.4l0.3,0.5l0.3,0.5l0.3,0.5l0.2,0.5l0.2,0.5l0.2,0.6l0.2,0.6
	l0.2,0.6l0.2,0.6l0.1,0.7l0.1,0.7l0.1,0.7l0.1,0.7l0.1,0.7l0.1,0.8l0,0.8l0.1,0.8v0.8l0,1.8l-0.1,1.8l-0.1,1.9l-0.2,2l-0.3,2.1
	l-0.3,2.2l-0.3,2.4l-0.4,2.4l-0.5,2.5l-0.5,2.6l-0.6,2.6l-0.6,2.5l-0.6,2.4l-0.6,2.3l-0.6,2.2l-0.7,2.1l-0.7,2l-0.7,1.9l-0.7,1.8
	l-0.7,1.7l-0.8,1.6l-0.8,1.5l-0.4,0.8l-0.4,0.7l-0.4,0.7l-0.4,0.7l-0.4,0.6l-0.4,0.6l-0.4,0.6l-0.4,0.6l-0.4,0.6l-0.4,0.5l-0.5,0.5
	l-0.4,0.5l-0.5,0.5l-0.5,0.5l-0.5,0.4l-0.5,0.4l-0.5,0.4l-0.5,0.4l-0.5,0.4l-0.5,0.3l-0.5,0.3l-0.5,0.3l-0.6,0.3l-0.6,0.3l-0.6,0.3
	l-0.6,0.2l-0.6,0.3l-0.6,0.2l-0.6,0.2l-0.6,0.2l-0.7,0.2l-0.6,0.1l-0.7,0.1l-0.7,0.1l-0.7,0.1l-0.7,0.1l-0.7,0.1l-0.7,0.1h-0.7
	l-0.7,0l-0.7,0h-0.7L182.9,237.8z M65.2,169.7l-0.9-0.1l-0.8-0.1l-0.7-0.1l-0.6-0.2l-0.6-0.2l-0.5-0.2l-0.5-0.3l-0.4-0.3l-0.3-0.3
	l-0.3-0.4l-0.2-0.4l-0.2-0.5l-0.1-0.5l-0.1-0.6l0-0.6v-0.7l0-0.7l0.1-0.7l0.1-0.8l0.1-0.8l0.2-0.9l0.2-0.9l0.4-2l0.5-2.2l3.6-16.5
	l0.3-1.5l0.3-1.6l0.3-1.6l0.3-1.6l0.3-1.6l0.4-1.6l0.4-1.6l0.3-1.6l0.4-1.7l0.3-1.6l0.4-1.4l0.3-1.3l0.2-0.6l0.2-0.6l0.2-0.5
	l0.3-0.5l0.3-0.4l0.3-0.4l0.3-0.4l0.3-0.4l0.3-0.3l0.4-0.3l0.4-0.3l0.5-0.3l0.5-0.2l0.6-0.2l0.6-0.2l0.7-0.2l0.7-0.2L76,114l0.8-0.1
	l0.9-0.1l1-0.1l1,0h1.1H82l0.8,0l0.8,0.1l0.8,0.1l0.8,0.1L86,114l0.8,0.1l0.7,0.1l0.8,0.1l1.4,0.3l1.3,0.4l1.3,0.4l1.2,0.5l0.8,0.3
	l0.8,0.4l0.8,0.4l0.7,0.4l0.7,0.4l0.7,0.5l0.6,0.5l0.6,0.5l0.6,0.5l0.5,0.6l0.5,0.6l0.5,0.6l0.4,0.7l0.4,0.7l0.4,0.7l0.3,0.7
	l0.3,0.8l0.3,0.8l0.3,0.8l0.2,0.8l0.2,0.8l0.1,0.9l0.1,0.9l0.1,0.9l0,1l0,1l0,1l-0.1,1.1l-0.1,1.1l-0.2,1.1l-0.2,1.1l-0.2,1.2
	l-0.4,2l-0.5,1.9l-0.5,1.8l-0.6,1.8l-0.3,0.9l-0.3,0.8l-0.3,0.8l-0.3,0.8l-0.4,0.8l-0.3,0.8l-0.4,0.8l-0.4,0.8l-0.4,0.7l-0.4,0.7
	l-0.4,0.7l-0.4,0.7l-0.5,0.7l-0.5,0.7l-0.5,0.6l-0.5,0.6l-0.5,0.6l-0.5,0.6l-0.6,0.6l-0.5,0.6l-0.6,0.5l-0.6,0.5l-0.6,0.5l-0.6,0.5
	l-1,0.7l-1,0.7l-1.1,0.6l-1.1,0.5l-1.1,0.5l-1.1,0.4l-1.2,0.4l-1.1,0.4l-1.2,0.3l-1.2,0.3l-1.2,0.3l-1.2,0.2L76,169l-1.2,0.2
	l-1.2,0.2l-1.3,0.1l-1.4,0.1l-1.3,0.1l-1.2,0.1l-1.1,0h-1L65.2,169.7z M46.7,100.3l-0.7,0l-0.7,0.1l-0.6,0.1l-0.7,0.1l-0.6,0.2
	l-0.6,0.2l-0.6,0.2l-0.5,0.3l-0.5,0.3l-0.5,0.4l-0.4,0.4l-0.4,0.5l-0.3,0.5l-0.3,0.6l-0.3,0.7l-0.2,0.7l-0.2,0.8l-0.1,0.8l0,0.9v1.3
	l-0.1,1.3l-0.1,1.3l-0.1,1.3l-0.2,1.3l-0.2,1.3l-0.2,1.4l-0.2,1.3l-0.5,2.7l-0.5,2.7l-0.5,2.7l-0.5,2.6l-0.6,2.9l-0.6,3l-0.6,3
	l-0.6,3.1l-0.6,3.1l-0.6,3.1l-0.6,3.1l-0.6,3l-0.6,3l-0.6,2.9l-0.6,2.8l-0.6,2.7l-0.5,2.5l-0.5,2.4l-0.4,2.2l-0.4,2l-0.6,2.9
	l-0.6,2.9l-0.6,2.8l-0.6,2.8l-0.6,2.7L23,191l-0.6,2.6l-0.6,2.6l-0.6,2.5l-0.6,2.4l-0.6,2.4l-0.5,2.4l-0.6,2.3l-0.5,2.3l-0.6,2.2
	l-0.5,2.1l-0.4,1.6l-0.4,1.6l-0.4,1.6l-0.4,1.6l-0.4,1.6l-0.5,1.6l-0.4,1.5l-0.4,1.5l-0.4,1.5l-0.4,1.5l-0.4,1.5l-0.4,1.5l-0.4,1.5
	l-0.4,1.5l-0.3,1.5l-0.3,1.5l-0.1,0.6l-0.1,0.6l-0.1,0.6v0.5l0,0.5l0.1,0.4l0.1,0.4l0.1,0.4l0.1,0.3l0.2,0.3l0.2,0.3l0.3,0.3
	l0.3,0.3l0.3,0.2l0.3,0.2l0.3,0.2l0.4,0.2l0.4,0.1l0.4,0.1l0.4,0.1l0.4,0.1l0.5,0.1l0.5,0l0.5,0l1,0l1.1,0l1.1-0.1l1.1-0.1l1.3-0.1
	l1.3-0.1l1.3,0l1.4,0l1.4,0l1.4,0.1l1.4,0.1l1.4,0.1l1.4,0.1l1.4,0.1l1.4,0.1l1.4,0.1l1.4,0.1l1.4,0h1.3l1.3,0l0.5,0h0.7l0.7,0
	l0.8,0l0.7-0.1l0.7-0.1l0.3-0.1l0.3-0.1l0.3-0.1l0.2-0.1l0.2-0.2l0.2-0.2l0.1-0.1l0-0.1l0-0.1v-0.2v-0.3l0-0.3l-0.1-0.3l-0.1-0.4
	l-0.2-0.8l-0.3-0.9l-0.7-2.2l-0.8-2.5l-0.3-1.3l-0.3-1.4l-0.1-0.7l-0.1-0.7l-0.1-0.8l-0.1-0.8l-0.1-0.8l0-0.8v-0.8v-0.8l0.1-0.8
	l0.1-0.8l0.1-0.8l0.2-0.8l8.8-34.9l0.5-1.9l0.5-1.7l0.5-1.5l0.5-1.3l0.5-1.1l0.6-0.9l0.5-0.8l0.6-0.6l0.6-0.4l0.6-0.3l0.6-0.2l0.6,0
	l0.6,0.1l0.6,0.2l0.6,0.3l0.6,0.4l0.6,0.5l0.6,0.6l0.6,0.7l0.7,0.8l0.6,0.9l0.7,0.9l0.7,1l0.7,1.1l1.3,2.3l1.4,2.4l1.4,2.5l1.4,2.5
	l1.1,2l1.1,2l1.1,2.1l1.1,2.1l1.1,2.1l1.1,2.1l1.1,2.1l1.1,2.1l1.1,2.1l1.1,2.1l1.1,2l1.1,2l1.1,1.9l1.2,1.9l1.1,1.8l1.2,1.8
	l1.9,2.6l2,2.4l2.1,2.2l2.3,2l2.4,1.8l2.4,1.5l2.5,1.4l2.6,1.2l2.7,1l2.8,0.9l2.9,0.8l2.9,0.6l3,0.5l3,0.3l3.1,0.3l3.1,0.2l3.1,0.1
	h3.1l3.2-0.1l3.2-0.1l3.2-0.2l3.2-0.2l3.2-0.2l3.2-0.3l6.3-0.5l6.1-0.5l3-0.2l2.9-0.2l2.9-0.1l2.8,0h0.7h0.7h0.7l0.7,0l1.4,0
	l1.4-0.1l1.4-0.1l1.4-0.1l1.3-0.1l1.3-0.2l1.3-0.2l1.3-0.2l1.3-0.2l1.3-0.3l1.3-0.3l1.3-0.3l1.3-0.3l1.3-0.3l1.2-0.4l1.2-0.4
	l1.2-0.4l1.2-0.4l1.2-0.4l1.1-0.5l1.1-0.5l1.1-0.5l1.1-0.5l1.1-0.6l1.1-0.6l1.1-0.6l1-0.6l1-0.6l1-0.7l1-0.7l1-0.7l1-0.8l1-0.8
	l1-0.8l0.9-0.8l0.9-0.8l0.9-0.9l0.9-0.9l0.8-0.9l0.8-0.9l0.8-0.9l0.8-1l0.8-1l0.8-1l0.7-1l0.7-1l0.7-1.1l0.7-1.1l0.6-1.1l0.6-1.1
	l0.6-1.1l0.6-1.2l0.6-1.2l0.5-1.2l0.5-1.2l0.5-1.3l0.5-1.2l0.4-1.3l0.4-1.3l0.4-1.3l0.4-1.3l0.3-1.4l0.3-1.3l0.3-1.4l0.3-1.4
	l0.3-1.4l0.2-1.4l0.2-1.3l0.2-1.3l0.1-1.3l0.1-1.3l0.1-1.3l0.1-1.3v-1.3l0-1.2l0-1.2l-0.1-1.2l-0.1-1.2l-0.1-1.1l-0.2-1.1l-0.2-1.1
	l-0.2-1.1l-0.3-1.1l-0.3-1l-0.3-1l-0.4-1l-0.4-1l-0.4-0.9l-0.5-0.9l-0.5-0.9l-0.5-0.9l-0.5-0.9l-0.6-0.8l-0.6-0.8l-0.7-0.8l-0.7-0.8
	l-0.7-0.8l-0.7-0.7l-0.8-0.7l-0.8-0.7l-0.8-0.7l-0.8-0.7l-0.8-0.6l-0.9-0.6l-0.9-0.6l-0.9-0.5l-1-0.5l-1-0.5l-1-0.5l-1-0.5l-1.1-0.4
	l-1.1-0.4l-1.1-0.4l-1.2-0.3l-1.2-0.3l-1.2-0.3l-1.2-0.3l-1.3-0.2l-1.3-0.2l-1.3-0.2l-1.3-0.2l-1.4-0.2l-1.4-0.2l-1.4-0.1l-1.4-0.1
	l-1.5-0.1l-1.5,0h-1.5h-1.5l-1.5,0l-1.5,0.1l-1.5,0.1l-1.4,0.1l-1.4,0.2l-1.4,0.2l-1.4,0.2l-1.4,0.2l-1.3,0.3l-1.4,0.3l-1.3,0.3
	l-1.3,0.3l-1.3,0.3l-1.3,0.3l-1.3,0.4l-1.3,0.4l-1.2,0.4l-1.3,0.4l-1.2,0.5l-1.2,0.5l-1.2,0.5l-1.2,0.6l-1.1,0.6l-1.2,0.6l-1.1,0.6
	l-1.1,0.7l-1.1,0.7l-1.1,0.7l-1,0.7l-1.1,0.8l-1,0.8l-1.5,1.3l-1.5,1.3l-1.4,1.3l-1.4,1.4l-1.3,1.4l-1.3,1.5l-1.2,1.5l-1.2,1.6
	l-1.1,1.6l-1.1,1.6l-1,1.7l-1,1.7l-0.9,1.7l-0.8,1.8l-0.8,1.8l-0.8,1.8l-0.7,1.8l-0.6,1.8l-0.6,1.8l-0.5,1.9l-0.4,1.9l-0.4,1.9
	l-0.3,1.9l-0.3,1.9l-0.2,1.9l-0.2,1.9l-0.1,1.9v1.9l0.1,1.9l0.1,1.9l0.2,1.9l0.3,1.8l0.1,0.8l0.2,0.8l0.2,0.8l0.2,0.8l0.2,0.8
	l0.2,0.8l0.3,0.8l0.3,0.8l0.3,0.7l0.3,0.8l0.3,0.7l0.4,0.7l0.4,0.7l0.4,0.7l0.4,0.7l0.5,0.7l1.2,1.5l1.2,1.5l0.6,0.8l0.5,0.8
	l0.3,0.4l0.2,0.4l0.2,0.3l0.2,0.3l0.1,0.3l0.1,0.3l0.1,0.3l0,0.3l0,0.3l-0.1,0.3l-0.1,0.3l-0.2,0.3l-0.2,0.2l-0.3,0.2l-0.3,0.2
	l-0.4,0.2l-0.4,0.1l-0.5,0.1l-0.6,0.1l-0.7,0.1l-2.8,0.1l-2.7-0.3l-2.6-0.5l-2.6-0.8l-2.5-1l-2.4-1.2l-2.4-1.4l-2.3-1.6l-2.2-1.8
	l-2.1-2l-2-2.1l-1.9-2.3L116,223l-1.8-2.5l-1.7-2.6l-1.6-2.6l-1.6-2.7l-1.5-2.8l-1.4-2.8l-1.3-2.8l-1.2-2.8l-1.2-2.8l-1.1-2.8
	l-1-2.7l-0.9-2.7l-0.8-2.6l-0.8-2.5l-0.7-2.4l-0.6-2.3l-0.5-2.1l-0.5-2l-0.4-1.8l2.4-0.5l2.4-0.6l2.3-0.6l2.2-0.6l2.1-0.7l2.1-0.8
	l2-0.8l1.9-0.8l1-0.4l0.9-0.4l0.9-0.4l0.9-0.4l0.9-0.5l0.9-0.5l0.8-0.5l0.8-0.5l0.8-0.5l0.8-0.5l0.8-0.5l0.8-0.5l0.8-0.5l0.8-0.6
	l0.8-0.6l0.7-0.6l1.4-1.2l1.3-1.3l1.3-1.4l1.2-1.4l1.1-1.5l1-1.5l0.9-1.6l0.9-1.6l0.8-1.7l0.7-1.7l0.6-1.7l0.5-1.8l0.4-1.8l0.3-1.8
	l0.3-1.8l0.1-1.8l0.1-1.8l-0.1-1.8l-0.2-1.8l-0.3-1.8l-0.3-1.8l-0.4-1.7l-0.6-1.7l-0.7-1.7l-0.8-1.6l-0.8-1.6l-1-1.5l-1.1-1.5
	l-1.2-1.4l-1.3-1.4l-1.4-1.3l-1.5-1.2l-0.8-0.6l-0.8-0.5l-0.8-0.5l-0.8-0.5l-0.8-0.5l-0.8-0.5l-0.8-0.4l-0.8-0.4l-0.8-0.4l-0.8-0.4
	l-0.9-0.4l-0.9-0.3l-0.9-0.3l-0.9-0.3l-1-0.3l-1-0.3l-1-0.3l-1.1-0.3l-1.1-0.3l-1.1-0.2l-1.2-0.2l-1.2-0.2l-1.3-0.2l-1.3-0.2
	l-1.3-0.1l-1.4-0.1l-1.5-0.1l-1.5-0.1l-1.5-0.1l-1.6,0l-1.7,0h-1.7h-2l-2.2,0h-2.4l-2.5,0l-2.6,0l-2.7,0l-2.7-0.1l-2.7,0l-2.6-0.1
	l-2.6-0.1l-2.4,0l-2.3-0.1l-2.1-0.1l-1.9,0l-1.7-0.1l-1.4-0.1l-2.5-0.2l-2.8-0.3l-1.4-0.1l-1.4-0.1L46.7,100.3z"/>
<path class="st1" d="M217.8,275.7L217.8,275.7l0.2-0.1L217.8,275.7z M64.3,261.7h-0.4h-0.4h-0.3H63l-0.2,0l-0.2,0.1l-0.2,0.1h0
	l-0.1,0L62,262l-0.2,0.1l-0.2,0.1l-0.1,0.1l-0.1,0v0l0,0h0l-0.9,1.2l-0.9,1.1l-0.9,1.1l-0.9,1.1l-0.9,1.1l-0.9,1.1l-0.9,1.1
	l-0.9,1.1l-0.9,1.1l-0.9,1.1l-0.9,1.1l-0.9,1.1l-0.9,1.1l-0.9,1.1l-0.9,1.1l-0.9,1.1l-0.5-1.1l-0.5-1.1l-0.5-1.1l-0.5-1.1l-0.5-1.1
	l-0.5-1.1l-0.5-1.1l-0.5-1.1l-0.5-1.1l-0.5-1.1l-0.5-1.1l-0.5-1.1l-0.5-1.1l-0.5-1.1l-0.5-1.1l-0.5-1.1l-0.1-0.2l-0.1-0.2l-0.1-0.1
	l-0.2-0.1l0,0l-0.1,0l-0.1-0.1l-0.2-0.1l-0.2-0.1l-0.2,0l-0.3,0h-0.1h0h-0.4h-0.4h-0.4h-0.4l-0.5,0l-0.4,0.1l-0.2,0.1l-0.2,0.1
	l-0.2,0.1l-0.2,0.1l-0.1,0.1l-0.1,0.1l-0.1,0.1l-0.1,0.2l-0.1,0.1l-0.1,0.2l-0.1,0.2l0,0.2l-0.3,1.3l-0.2,1.3l-0.2,1.3l-0.2,1.4
	l-0.3,1.3l-0.2,1.3l-0.2,1.3l-0.2,1.3l-0.2,1.3l-0.2,1.3l-0.2,1.4l-0.2,1.3l-0.2,1.3l-0.3,1.3l-0.2,1.3l-0.2,1.3l0,0.2v0.2l0,0.2
	v0.2l0.1,0.2L29,286l0.1,0.1l0.1,0.1l0.1,0.1l0.2,0.1l0.2,0.1l0.2,0.1l0.2,0.1l0.2,0h0.3l0.3,0h0.4h0.5l0.4,0l0.4-0.1l0.3-0.1
	l0.4-0.2l0.2-0.2l0.2-0.2l0.2-0.2l0.1-0.2l0.1-0.1l0-0.1v0l0-0.1l0.1-0.1h0h0l0.1-0.9l0.2-0.9l0.1-0.9l0.2-0.9l0.1-0.9l0.2-0.9
	l0.2-0.8l0.1-0.9l0.2-0.9l0.1-0.9l0.2-0.9l0.2-0.9l0.2-0.9l0.2-0.9l0.1-0.9l0.2-0.9l0.4,0.9l0.4,0.9l0.5,0.9l0.4,0.9l0.5,0.9
	l0.4,0.9l0.4,0.9l0.5,0.9l0.4,0.9l0.4,0.9l0.5,0.9l0.4,0.9l0.4,0.9l0.5,0.9l0.4,0.9l0.4,0.9v0h0l0.1,0.2l0.1,0.2l0.2,0.1l0.2,0.1h0
	l0,0l0.1,0l0.1,0l0.2,0.1l0.2,0.1l0.3,0h0.3l0,0h0h0.3h0.2H46h0.3l0.3,0l0.2,0l0.3,0l0.2-0.1h0.1l0,0l0.2-0.1l0.2-0.1l0.2-0.2
	l0.2-0.2l0,0l0.7-0.9l0.8-0.9l0.7-0.9l0.8-0.9l0.7-0.9l0.7-0.9l0.8-0.9l0.7-0.9l0.7-0.9l0.8-0.9l0.7-0.9l0.8-0.9l0.7-0.9l0.8-0.9
	l0.8-0.9l0.7-0.9l-0.2,0.8l-0.1,0.8l-0.2,0.8l-0.1,0.8l-0.2,0.8l-0.1,0.8l-0.2,0.8l-0.1,0.8l-0.2,0.8l-0.1,0.8l-0.2,0.8l-0.1,0.8
	l-0.2,0.8l-0.1,0.8l-0.2,0.8l-0.1,0.8l0,0.2v0.2v0.2l0,0.2l0.1,0.2l0.1,0.1l0.1,0.1l0.1,0.1l0.1,0.1l0.2,0.1l0.2,0.1l0.2,0.1
	l0.2,0.1l0.3,0h0.2l0.3,0h0.4h0.4l0.4,0l0.4-0.1l0.4-0.1l0.3-0.2l0.3-0.2l0.2-0.2l0.2-0.2l0.1-0.2l0-0.1l0-0.1v0h0l0-0.1v-0.1
	l0.2-1.3l0.2-1.3l0.3-1.4l0.2-1.3l0.2-1.3l0.2-1.3l0.2-1.3l0.2-1.3L65,273l0.2-1.3l0.2-1.3l0.3-1.4l0.2-1.3l0.2-1.3l0.2-1.3l0.3-1.3
	l0-0.2l0-0.2l0-0.2l-0.1-0.2l-0.1-0.2l-0.1-0.2l-0.2-0.2l-0.2-0.1l-0.3-0.2l-0.4-0.1l-0.4-0.1l-0.4,0H64.3z M173.5,261.7h-0.4
	l-0.4,0l-0.4,0.1l-0.2,0.1l-0.2,0.1l-0.2,0.1l-0.2,0.1l-0.1,0.1l-0.1,0.1l-0.1,0.1l-0.1,0.1v0l-0.8,1.1l-0.8,1.1l-0.8,1.1L168,267
	l-0.8,1.1l-0.8,1.1l-0.8,1.1l-0.8,1.1l-0.8,1.1l-0.8,1.1l-0.8,1.1l-0.8,1.1l-0.8,1.1l-0.8,1.1l-0.8,1.1l-0.8,1.1L158,279l-0.4-1.1
	l-0.4-1.1l-0.5-1.1l-0.4-1.1l-0.4-1.1l-0.4-1.1l-0.4-1.1l-0.4-1.1l-0.5-1.1l-0.4-1.1l-0.4-1.1l-0.4-1.1l-0.4-1.1l-0.4-1.1l-0.4-1.1
	l-0.1-0.2l-0.2-0.2l-0.2-0.2l-0.2-0.2l-0.3-0.1l-0.3-0.1l-0.3,0l-0.4,0h-0.4h-0.4l-0.5,0l-0.4,0.1l-0.4,0.1l-0.3,0.2l-0.2,0.1
	l-0.1,0.1l-0.1,0.1l-0.1,0.1l-0.1,0.2l-0.1,0.2l-0.1,0.2l-0.1,0.2v0.2v0.2v0l0.1,0.2l0.1,0.2l0.5,1.3l0.5,1.4l0.5,1.3l0.5,1.3
	l0.5,1.3l0.5,1.3l0.5,1.3l0.5,1.3l0.5,1.3l0.5,1.3l0.5,1.3l0.5,1.3l0.5,1.3l0.5,1.3l0.5,1.3l0.5,1.3h0l0.1,0.2l0.2,0.2l0.2,0.2
	l0.2,0.2l0.3,0.1l0.3,0.1l0.3,0h0.4h0.2h0.3h0.3h0.2h0.4l0.4-0.1l0.2-0.1l0.2-0.1l0.2-0.1l0.2-0.1l0.1-0.1l0.1-0.1l0.1-0.1l0.1-0.1
	v0l0,0l1-1.3l1-1.3l1-1.3l1-1.3l1-1.3l1-1.3l1-1.3l1-1.3l1-1.3l1-1.3l1-1.3l1-1.3l1-1.3l1-1.3l1-1.3l1-1.3l0.1-0.1l0-0.1l0,0l0-0.1
	l0.1-0.2l0-0.2l0-0.2l0-0.2l0-0.2l0-0.2l0-0.2l-0.1-0.1l-0.1-0.1l-0.1-0.1l-0.1-0.1l-0.2-0.1l-0.2-0.1l-0.2-0.1l-0.4-0.1l-0.5,0
	H173.5z M218.7,261.7h-2.5h-2.5h-2.5h-2.5h-2.5h-2.5h-2.5l-0.3,0l-0.3,0l-0.3,0.1l-0.3,0.1l-0.2,0.1l-0.2,0.1l-0.2,0.2l-0.1,0.2
	l-0.1,0.2l-0.1,0.2v0l-0.1,0.2l-0.1,0.2l-0.2,1.3l-0.2,1.4l-0.2,1.3l-0.3,1.3l-0.2,1.3l-0.2,1.3l-0.2,1.3l-0.2,1.3l-0.2,1.3
	l-0.2,1.3l-0.2,1.3l-0.3,1.3l-0.2,1.4l-0.2,1.3l-0.2,1.3l-0.2,1.3l0,0.2v0.2v0.2l0,0.2l0,0.2l0.1,0.1l0.1,0.1l0.1,0.1l0.1,0.1
	l0.1,0.1l0.2,0.1l0.2,0.1l0.2,0.1l0.2,0h0.3h0.3h2.5h2.5h2.5h2.5h2.5h2.5h2.5h2.5h0.3l0.3,0l0.3-0.1l0.3-0.1l0.1,0l0.1-0.1l0.1,0
	l0.1,0l0,0h0l0.2-0.2l0.2-0.2l0.2-0.2l0.1-0.2l0,0v0l0-0.1l0.1-0.1l0-0.1v-0.1l0.1-0.3l0.1-0.3v-0.3l0-0.3l-0.1-0.2l-0.1-0.3v0v0
	l-0.1-0.1l-0.1-0.1l-0.1-0.1l-0.1-0.1l0,0l-0.3-0.2l-0.4-0.2l-0.2-0.1l-0.2,0l-0.2,0h-0.2h-2.2h-2.2h-2.1h-2.2h-2.2H205h-2.2h-2.1
	l0.1-0.8l0.2-0.8l0.1-0.8l0.2-0.8l0.1-0.8l0.2-0.8l0.2-0.8l0.1-0.8h1.9h1.9h1.9h1.9h1.9h1.9h1.9h1.9l0.3,0l0.3,0l0.2-0.1l0.1,0h-0.1
	h-0.1l-0.2,0l-0.1,0l-0.1-0.1l-0.1-0.1l-0.1-0.1l1,0.3h0h0l0.1-0.1l0.1,0l0.1-0.1l0.1,0l0,0l0.2-0.2l0.2-0.2l0.1-0.2l0.1-0.2l0-0.1
	l0.1-0.1v-0.1l0-0.1l0.1-0.3l0-0.3l0-0.2v-0.2V273l0-0.2l-0.1-0.2l-0.1-0.1l-0.1-0.1l-0.1-0.1l-0.1-0.1l-0.2-0.1l-0.2-0.1l-0.2-0.1
	l-0.4-0.1h-0.5h-1.8h-1.9h-1.8H210h-1.8h-1.9h-1.8h-1.8l0.1-0.7l0.1-0.7l0.1-0.7l0.1-0.7l0.1-0.7l0.1-0.7l0.1-0.7l0.1-0.7h2.2h2.2
	h2.1h2.2h2.2h2.2h2.2h2.1l0.3,0l0.3,0l0.3-0.1l0.2-0.1v0h0.1l0.1,0l0.1-0.1l0.1,0l0.1,0v0h0l0.3-0.2l0.3-0.3l0.1-0.1l0.1-0.2
	l0.1-0.2l0.1-0.2l0-0.3l0.1-0.3l0-0.2v-0.2l0-0.2l0-0.2h0v0l-0.2-0.3l-0.2-0.2l0,0l0,0l-0.1-0.1l-0.2-0.1l-0.2-0.1l-0.2-0.1
	l-0.4-0.1l-0.4,0H218.7z M248.2,261.7h-0.3l-0.5,0l-0.5,0.1l-0.4,0.1l-0.3,0.1l-0.2,0.1l-0.2,0.1l-0.2,0.1l-0.1,0.2l-0.1,0.1
	l-0.1,0.2l-0.1,0.2l-0.1,0.2l-0.2,1.3l-0.2,1.4l-0.3,1.3l-0.2,1.3l-0.2,1.3l-0.2,1.3l-0.2,1.3l-0.2,1.3l-0.2,1.3l-0.2,1.3l-0.2,1.3
	l-0.2,1.3l-0.2,1.3l-0.2,1.4l-0.2,1.3l-0.2,1.3l0,0.2v0.2v0.2l0,0.2l0.1,0.2l0.1,0.1l0.1,0.1l0.1,0.1l0.2,0.1l0.2,0.1l0.2,0.1
	l0.2,0.1l0.5,0.1h0.6h0.3h0.3h0.3l0.3,0l0.3-0.1l0.3-0.1l0.2-0.1l0.2-0.1l0.2-0.2l0.2-0.2l0.1-0.2l0.1-0.2l0.1-0.2l0.1-0.2l0.2-1.4
	l0.2-1.3l0.2-1.3l0.2-1.3l0.2-1.3l0.2-1.3l0.3-1.3l0.2-1.3l0.2-1.3l0.2-1.3l0.2-1.3l0.2-1.4l0.2-1.3l0.3-1.3l0.2-1.3l0.2-1.3l0-0.2
	v-0.2V263l0-0.2l0-0.2l-0.1-0.1l-0.1-0.1l-0.1-0.1l-0.1-0.1l-0.2-0.1l-0.2-0.1l-0.2-0.1l-0.4-0.1l-0.5,0H248.2z M287.1,261.5
	l-1.4,0.1l-1.3,0.1l-1.2,0.2l-1.1,0.2l-1.1,0.3l-0.5,0.1l-0.4,0.2l-0.5,0.2l-0.4,0.2l-0.4,0.2l-0.4,0.2l-0.4,0.2l-0.4,0.3l-0.3,0.3
	l-0.3,0.3l-0.3,0.3l-0.3,0.3l-0.3,0.4l-0.2,0.4l-0.2,0.4l-0.2,0.4l-0.2,0.4l-0.1,0.4l-0.1,0.4l-0.1,0.4v0l-0.1,0.5l0,0.5v0.4
	l0.1,0.5l0.1,0.4l0.1,0.4l0.2,0.4l0.2,0.4l0.3,0.4l0.3,0.4l0.3,0.3l0.4,0.3l0.4,0.3l0.4,0.3l0.5,0.3l0.5,0.2l0.8,0.3l1.1,0.3
	l1.3,0.3l1.5,0.3l0.3,0.1l0.3,0.1l0.3,0l0.3,0.1l0.3,0.1l0.3,0l0.4,0.1l0.4,0.1h0h0h0l0.9,0.2l1,0.2l0.9,0.1l1,0.2l0.5,0.1l0.5,0.1
	l0.4,0.1l0.4,0.1h0l0.6,0.2l0.5,0.2l0.5,0.2l0.4,0.2l0.1,0.1l0.1,0.1l0,0l0.1,0.1l0,0l0.1,0.1l0.1,0.2l0.1,0.1l0.1,0.2l0.1,0.2v0.2
	v0.2l0,0.3l0,0.2l-0.1,0.2l-0.1,0.2l-0.1,0.2l-0.2,0.4l-0.3,0.3l-0.4,0.3l-0.5,0.3l-0.5,0.3l-0.6,0.2l-0.5,0.1l-0.5,0.1l-0.5,0.1
	l-0.6,0.1l-0.2,0l-0.3,0l-0.7,0.1l-0.8,0.1l-0.8,0h-0.9h0l-1.2,0l-1.1-0.1l-1.1-0.1l-1-0.2l-0.5-0.1l-0.5-0.1l-0.4-0.1l-0.4-0.1
	l-0.4-0.2l-0.4-0.2l-0.3-0.2l-0.3-0.2l-0.2-0.2l-0.2-0.2l-0.2-0.2l-0.1-0.2l-0.1-0.3l-0.1-0.3l-0.1-0.3V279l0-0.4l0.1-0.4v-0.1V278
	l0-0.2v-0.2h0l0-0.3l-0.1-0.3l-0.1-0.2l-0.2-0.2l-0.2-0.2l-0.2-0.1l-0.2-0.1l-0.3-0.1l-0.3-0.1h-0.4H275h-0.4h-0.3l-0.3,0.1l-0.3,0
	l-0.3,0.1l-0.2,0.1l-0.2,0.2l-0.2,0.1l-0.2,0.2l-0.1,0.2l-0.1,0.2l-0.1,0.2l0,0.2v0l0,0.2l0,0.2l-0.1,0.6l-0.1,0.6v0.6l0.1,0.5
	l0.1,0.5l0.1,0.5l0.2,0.5l0.2,0.5l0.3,0.4l0.3,0.5l0.4,0.4l0.4,0.4l0.4,0.4l0.5,0.4l0.5,0.3l0.5,0.3l0.4,0.2l0.5,0.2l0.4,0.2
	l0.5,0.2l0.5,0.1l0.5,0.1l0.5,0.1l0.6,0.1l0.6,0.1l0.6,0.1l0.6,0.1l0.6,0l0.7,0.1l0.7,0h0.7h0.7h1.1l1.1-0.1l1.1-0.1l1-0.1l0.5-0.1
	l0.5-0.1l0.5-0.1l0.5-0.1l0.5-0.1l0.5-0.1l0.5-0.2l0.5-0.1h0l0.6-0.2l0.6-0.2l0.6-0.3l0.5-0.3l0.5-0.3l0.5-0.3l0.4-0.3l0.4-0.4
	l0.4-0.4l0.3-0.4l0.3-0.4l0.3-0.4l0.2-0.4l0.2-0.5l0.1-0.5l0.1-0.5l0.1-0.4l0-0.3v-0.4v-0.3v-0.3l0-0.3l-0.1-0.3l-0.1-0.3l-0.1-0.3
	l-0.1-0.3l-0.1-0.3l-0.1-0.3l-0.2-0.2l-0.2-0.2l-0.2-0.2l-0.2-0.2l-0.4-0.4l-0.4-0.3l-0.4-0.3l-0.4-0.2l0,0l-0.5-0.2l-0.6-0.2
	l-0.7-0.2l-0.8-0.2l-0.8-0.2l-0.9-0.2l-1-0.2l-1.1-0.2l-0.5-0.1l-0.4-0.1l-0.5-0.1l-0.4-0.1l-0.5-0.1l-0.5-0.1l-0.5-0.1l-0.5-0.1h0
	l-1.3-0.2l-1.2-0.2l-1-0.2l-0.8-0.2l-0.2-0.1l-0.2-0.1l-0.2,0l-0.1-0.1h-0.1v0l-0.4-0.2l-0.3-0.2l-0.2-0.2l-0.2-0.2l-0.1-0.2
	l-0.1-0.2l0-0.3l0-0.3l0.1-0.4l0.1-0.4l0.2-0.3l0.3-0.3l0.3-0.2l0.4-0.2l0.4-0.2l0.5-0.2l0.5-0.2l0.6-0.1l0.6-0.1l0.7-0.1l0.8-0.1
	l0.8-0.1l0.9,0h0.9h0.5h0.5l0.5,0h0.4l0.4,0h0.4l0.4,0l0.4,0.1h0l0.7,0.1l0.6,0.1l0.5,0.2l0.5,0.2l0.2,0.1l0.2,0.2l0.2,0.1l0.2,0.2
	l0.1,0.1l0.1,0.2l0.1,0.2l0.1,0.2l0.1,0.2l0.1,0.2l0,0.2l0,0.2l0,0.4l0,0.4v0l0,0.2v0.2l0,0.2l0,0.2l0.1,0.2l0.1,0.1l0.1,0.1
	l0.1,0.1l0.1,0.1l0.2,0.1l0.2,0.1l0.2,0.1l0.4,0.1h0.5h0.5h0.4h0.4l0.4-0.1l0.3-0.1l0.3-0.2l0.2-0.1l0.1-0.1l0.1-0.1l0.1-0.1
	l0.1-0.2l0.1-0.1l0.1-0.2l0-0.2v-0.1v0l0.1-0.5l0-0.5v-0.5l0-0.5l-0.1-0.4l-0.1-0.5l-0.1-0.4l-0.2-0.4l-0.2-0.4l-0.2-0.4l-0.3-0.4
	l-0.3-0.3l-0.3-0.3l-0.4-0.3l-0.4-0.3l-0.4-0.2l-0.4-0.2l-0.4-0.2l-0.4-0.2l-0.5-0.2l-0.5-0.2l-0.5-0.2l-0.5-0.1l-0.6-0.1l-0.6-0.1
	l-0.6-0.1l-0.7-0.1l-0.7-0.1l-1.4-0.1l-1.5,0H287.1z M111.2,255.2L111.2,255.2L111.2,255.2z M102.7,282.8l-0.8-0.1l-0.8-0.1
	l-0.6-0.1l-0.6-0.1l-0.6-0.2l-0.5-0.2l-0.5-0.2l-0.5-0.2l-0.5-0.2l-0.5-0.3l-0.3-0.2l-0.3-0.2l-0.3-0.2l-0.2-0.2l-0.4-0.4l-0.3-0.5
	l-0.3-0.5l-0.3-0.5l-0.2-0.5l-0.1-0.6l-0.1-0.6L94,276v-0.6l0-0.6l0.1-0.6l0.1-0.6l0.2-0.6l0.2-0.6l0.2-0.6l0.3-0.6l0.2-0.4l0.2-0.4
	l0.3-0.4l0.3-0.4l0.3-0.3l0.3-0.3l0.3-0.3l0.3-0.3l0.4-0.3l0.4-0.2l0.4-0.2l0.4-0.2l0.8-0.4l0.8-0.4l0.8-0.3l0.9-0.3l0.4-0.1
	l0.4-0.1l0.4-0.1l0.4-0.1l0.4-0.1l0.4,0l0.4-0.1l0.4,0h0l0.9-0.1l0.9-0.1h1l1,0l1,0.1l1,0.1l0.9,0.2l0.9,0.3l0.4,0.1l0.3,0.1
	l0.3,0.1l0.3,0.1l0.3,0.2l0.3,0.2l0.3,0.2l0.3,0.2v0l0.5,0.4l0.4,0.5l0.4,0.5l0.3,0.5l0.2,0.4l0.2,0.5l0.1,0.5l0.1,0.5l0.1,0.5v0.5
	v0.5l0,0.5l-0.1,0.5l-0.1,0.5l-0.2,0.5l-0.2,0.5l-0.2,0.5l-0.2,0.5l-0.2,0.5l-0.3,0.5l-0.3,0.5l-0.3,0.5l-0.4,0.5l-0.4,0.4l-0.4,0.4
	l-0.4,0.4l-0.4,0.3l-0.4,0.3l-0.6,0.4l-0.6,0.4l-0.6,0.3l-0.7,0.3l-0.7,0.2l-0.7,0.2l-0.8,0.2l-0.8,0.1l-0.8,0.1l-0.8,0.1l-0.8,0.1
	h-0.8h-0.8L102.7,282.8z M111.3,255.2L111.3,255.2L111.3,255.2l-0.5,0l-0.5,0.1l-0.2,0.1l-0.3,0.1l-0.2,0.1l-0.3,0.1l-0.7,0.6
	l-0.7,0.5l-0.7,0.5l-0.7,0.5l-0.7,0.6L105,259l-0.7,0.5l-0.7,0.5l-0.2,0.2l-0.2,0.1l-0.1,0.2l-0.1,0.1l-0.1,0.2l0,0.2l0,0.2l0,0.2v0
	l0,0.1l-1,0.2l-1,0.2l-1,0.3l-1,0.3l-1,0.4l-0.9,0.4l-0.9,0.5l-0.9,0.5l-0.4,0.3l-0.4,0.2l-0.4,0.3l-0.4,0.3l-0.3,0.3l-0.4,0.3
	l-0.3,0.4l-0.3,0.3l0,0l-0.4,0.5l-0.4,0.5l-0.4,0.5l-0.3,0.5l-0.3,0.5l-0.3,0.5l-0.3,0.6l-0.2,0.5l-0.3,0.8l-0.2,0.7l-0.2,0.8
	l-0.2,0.8l-0.1,0.8l0,0.8v0.8l0.1,0.8l0.1,0.8l0.2,0.7l0.2,0.8l0.3,0.7l0.4,0.7l0.4,0.7l0.2,0.3l0.2,0.3l0.3,0.3l0.3,0.3l0.3,0.3
	l0.4,0.4l0.4,0.3l0.4,0.3l0.4,0.3l0.4,0.3l0.4,0.2l0.5,0.2l0.9,0.4l0.9,0.4l1,0.3l1,0.3l1,0.2l1,0.1l1,0.1l1.1,0.1l1,0h1.1l1.1,0
	l1-0.1l1-0.1l1.1-0.2l1-0.2l1-0.2l0.8-0.2l0.8-0.3l0.7-0.3l0.7-0.3l0.7-0.4l0.7-0.4l0.7-0.4l0.6-0.4v0l0.7-0.5l0.6-0.5l0.6-0.6
	l0.6-0.6l0.5-0.7l0.5-0.7l0.5-0.7l0.4-0.7l0.4-0.7l0.3-0.7l0.3-0.7l0.3-0.7l0.2-0.7l0.2-0.7l0.1-0.7l0.1-0.7l0.1-0.7v-0.7l-0.1-0.7
	l-0.1-0.7l-0.2-0.7l-0.2-0.7l-0.3-0.7l-0.3-0.7l-0.3-0.4l-0.3-0.5l-0.3-0.4l-0.4-0.4l-0.4-0.4l-0.5-0.4l-0.5-0.4l-0.5-0.4l-0.5-0.3
	l-0.5-0.3l-0.5-0.2l-0.5-0.2l-0.5-0.2l-0.6-0.2l-0.5-0.2l-0.6-0.2l-0.4-0.1l-0.5-0.1l-1-0.2l-1-0.2l-1-0.1l-1.1-0.1l0.9-0.6l0.8-0.6
	l0.8-0.6l0.9-0.6l0.2-0.2l0.2-0.2l0.2-0.2l0.2-0.3v0l0,0l0.1-0.3l0.1-0.3v0v0v0v-0.1v0v0v0v0v-0.2l-0.1-0.2l0-0.2l-0.1-0.1l-0.2-0.2
	l-0.2-0.2l-0.3-0.2l-0.3-0.1l-0.3-0.1l-0.3-0.1l-0.2,0l-0.2,0l-0.2,0H111.3z"/>
</svg>
