<?xml version="1.0" encoding="utf-8"?>
<!-- Generator: Adobe Illustrator 23.0.1, SVG Export Plug-In . SVG Version: 6.00 Build 0)  -->
<svg version="1.1" id="Camada_1" xmlns="http://www.w3.org/2000/svg" xmlns:xlink="http://www.w3.org/1999/xlink" x="0px" y="0px"
	 viewBox="0 0 522.5 292.9" style="enable-background:new 0 0 522.5 292.9;" xml:space="preserve">
<style type="text/css">
	.st0{fill-rule:evenodd;clip-rule:evenodd;fill:#6D6E70;}
	.st1{fill:#B1B2B4;}
	.st2{fill:#B01D23;}
	.st3{fill:#6D6E70;}
</style>
<polygon class="st0" points="321,56.6 322.7,57.4 324.5,58.2 326.3,59 328,59.7 329.8,60.4 331.7,61.1 333.5,61.8 335.3,62.5 
	337.1,63.1 339,63.8 340.8,64.4 342.7,64.9 344.5,65.5 346.4,66.1 348.3,66.6 350.1,67.1 352.6,67.8 355.2,68.4 357.7,69 
	360.3,69.5 362.9,70 365.5,70.4 368,70.8 370.7,71.1 373.3,71.4 376,71.6 378.6,71.7 381.3,71.8 384,71.8 386.7,71.7 389.4,71.6 
	392.1,71.4 394.8,71.1 397.6,70.8 400.3,70.4 403.1,69.9 405.8,69.3 408.6,68.7 411.4,67.9 414.2,67.1 417.1,66.2 419.9,65.3 
	422.7,64.2 425.6,63.1 428.4,61.8 431.3,60.5 434.2,59.1 437.1,57.6 438.9,56.6 440.8,55.5 442.5,54.5 444.3,53.4 446,52.3 
	447.6,51.2 449.3,50.2 450.9,49 452.5,47.9 454,46.8 455.5,45.7 457,44.5 458.4,43.4 459.8,42.3 461.2,41.1 462.5,40 463.8,38.9 
	465,37.7 466.2,36.6 467.4,35.5 468.5,34.4 469.6,33.3 470.7,32.3 471.7,31.2 472.7,30.2 473.6,29.2 474.5,28.1 475.4,27.1 
	477,25.3 478.5,23.4 478.9,23 479.3,22.5 479.7,22.1 480.1,21.6 480.6,21.2 481,20.9 481.5,20.6 482,20.2 482.5,20 483,19.7 
	483.5,19.4 484,19.2 484.5,19 485.1,18.8 485.6,18.7 486.1,18.6 486.7,18.4 487.2,18.3 487.8,18.3 488.3,18.2 488.9,18.2 
	489.5,18.2 490.1,18.2 490.6,18.2 491.2,18.2 491.8,18.3 492.4,18.3 492.9,18.4 494.1,18.6 495.2,18.9 498.4,19.9 501.2,21 
	503.6,22.2 505.6,23.5 507.3,24.9 508.6,26.3 509.6,27.9 510.3,29.5 510.7,31.2 510.9,32.9 510.7,34.6 510.3,36.4 509.7,38.3 
	508.9,40.1 507.9,42 506.7,43.9 505.3,45.8 503.7,47.7 502,49.5 500.2,51.4 498.3,53.2 496.3,55 494.1,56.7 492,58.4 489.7,60 
	487.4,61.6 485.1,63.1 482.8,64.5 480.5,65.9 478.2,67.1 476,68.3 473.8,69.3 471.4,70.4 468.9,71.4 466.5,72.3 464.1,73.3 
	461.6,74.2 459.1,75 456.6,75.8 454.1,76.5 451.5,77.2 449,77.8 446.4,78.4 443.9,79 441.3,79.5 438.7,80 436.1,80.4 433.5,80.8 
	429.6,81.3 425.7,81.8 421.7,82.1 417.8,82.4 413.9,82.6 410,82.6 406.1,82.6 402.2,82.6 398.3,82.4 394.5,82.1 390.6,81.8 
	386.8,81.4 383,81 379.2,80.4 375.5,79.8 371.8,79.1 368.1,78.4 364.5,77.6 360.9,76.7 357.3,75.7 353.8,74.7 350.4,73.6 
	346.9,72.5 343.6,71.3 340.3,70 337,68.7 333.9,67.4 330.8,65.9 327.7,64.5 324.8,62.9 321.9,61.3 319,59.7 317.5,58.8 316.2,58 
	314.9,57.2 313.7,56.4 312.6,55.7 311.6,55 310.6,54.4 309.9,53.9 308.9,53.2 308.2,52.6 307.6,52.1 307.1,51.7 306.8,51.4 
	306.7,51.1 306.7,51 306.8,50.9 306.9,50.8 307.3,50.9 307.6,50.9 308.1,51 309.3,51.5 310.7,52 312.2,52.6 313.8,53.3 315.5,54 
	317,54.7 318.4,55.3 319.6,55.9 320.5,56.3 "/>
<polygon class="st1" points="257.2,3.3 256.9,3.4 256.6,3.8 256.6,4.5 256.6,5.5 256.8,6.7 257.1,8.1 257.5,9.8 258,11.8 
	258.6,13.9 259.4,16.2 260.3,18.7 261.3,21.4 262.4,24.2 263.7,27.2 265.1,30.3 266.6,33.5 268.3,36.9 270,40.3 271.9,43.8 
	273.9,47.4 276.1,51.1 278.4,54.8 280.8,58.6 283.3,62.3 286,66.1 288.8,69.9 291.7,73.7 298.9,82.1 306.2,89.8 313.8,96.7 
	321.6,102.9 329.5,108.4 337.6,113.1 345.7,117.2 354,120.6 362.2,123.3 370.6,125.5 378.9,127 387.2,127.9 395.5,128.3 
	403.7,128.1 411.8,127.3 419.8,126.1 427.7,124.3 435.4,122.1 442.9,119.4 450.2,116.2 457.2,112.6 464,108.6 470.5,104.2 
	476.7,99.4 482.5,94.3 488,88.8 493.1,83 497.8,76.9 502,70.6 505.8,63.9 509.1,57 511.9,49.9 512.3,48.9 512.5,47.9 512.7,47.1 
	512.8,46.5 512.9,46.2 512.9,45.9 512.9,45.7 512.8,45.6 512.8,45.5 512.7,45.4 512.6,45.3 512.4,45.3 512.3,45.4 512.1,45.4 
	511.9,45.6 511.7,45.7 511.2,46.2 510.7,46.8 510,47.6 509.2,48.6 508.3,49.8 507.3,51.2 506.4,52.5 505.5,53.6 504.6,54.8 
	503.6,56 502.6,57.1 501.5,58.2 500.4,59.3 499.3,60.4 498.1,61.5 496.9,62.5 495.7,63.6 494.5,64.6 493.2,65.6 491.9,66.5 
	490.6,67.5 489.2,68.4 487.8,69.3 486.4,70.2 485,71.1 483.6,72 482.1,72.8 480.7,73.6 479.2,74.4 477.7,75.1 476.1,75.9 
	474.6,76.6 473.1,77.3 471.5,78.1 469.9,78.7 468.4,79.4 466.8,80 465.2,80.6 458.5,82.9 451.6,84.9 444.7,86.6 437.7,88 430.5,89 
	423.4,89.8 416.1,90.2 408.8,90.3 401.6,90.2 394.2,89.7 387,88.9 379.7,87.9 372.5,86.5 365.3,84.8 358.2,82.8 351.1,80.6 
	344.2,78.1 337.3,75.3 330.6,72.2 324,68.8 317.6,65.2 311.3,61.2 305.2,57 299.3,52.6 293.6,47.9 288.1,42.9 282.8,37.6 
	277.8,32.1 273,26.4 268.6,20.3 264.4,14.1 260.5,7.6 259.6,6 258.8,4.8 258.2,4 257.6,3.5 "/>
<path class="st2" d="M386.5,229.2l-0.4-0.1l-0.4-0.1l-0.4-0.1l-0.4-0.1l-0.4-0.1l-0.4-0.2l-0.3-0.2l-0.3-0.2l-0.2-0.2l-0.2-0.2
	l-0.2-0.2l-0.2-0.2l-0.1-0.2l-0.1-0.2l-0.1-0.2l0-0.3l-0.1-0.3v-0.3v-0.3v-0.3l0.1-0.6l0.1-0.6l0.2-0.6l0.2-0.7l0.2-0.7l0.2-0.7
	l0.5-1.5l0.5-1.5l0.6-1.7l0.6-1.7l0.4-0.8l0.3-0.8l0.4-0.8l0.4-0.7l0.4-0.7l0.4-0.7l0.4-0.7l0.4-0.7l0.4-0.7l0.4-0.6l0.4-0.6
	l0.5-0.6l0.8-0.9l0.8-0.9l0.8-0.8l0.9-0.7l0.9-0.7l0.9-0.6l0.9-0.6l0.9-0.5l0.5-0.2l0.5-0.2l0.5-0.2l0.5-0.2l1-0.3l1.1-0.3l1.1-0.2
	l1.1-0.1l1.1-0.1l1.1,0l1,0l1,0.1l0.9,0.1l0.9,0.2l0.8,0.2l0.8,0.3l0.8,0.4l0.7,0.4l0.3,0.2l0.4,0.2l0.4,0.2l0.3,0.3l0.3,0.3
	l0.3,0.3l0.3,0.3l0.3,0.3l0.5,0.7l0.5,0.7l0.4,0.8l0.4,0.8l0.3,0.5l0.3,0.6l0.2,0.6l0.2,0.6l0.2,0.6l0.2,0.6l0.2,0.7l0.2,0.7
	l0.1,0.7l0.1,0.7l0.1,0.7l0.1,0.8l0.1,0.8l0,0.8l0,0.8v0.9v1l0,1l0,1l-0.1,1.1l-0.1,1.1l-0.1,1.1l-0.1,1.1l-0.2,1.1l-0.1,0.3
	l-0.1,0.3l-0.1,0.3l-0.1,0.2l-0.2,0.2l-0.2,0.2l-0.2,0.2l-0.2,0.2l-0.2,0.2L417,228l-0.3,0.1l-0.3,0.2l-0.6,0.2l-0.6,0.2l-0.7,0.2
	l-0.7,0.1l-0.8,0.1l-0.8,0.1l-0.8,0l-0.9,0h-0.9l-0.9,0l-2.4-0.1l-2.3-0.1l-2.3-0.1l-2.2-0.1l-1.1,0h-1.1h-1.1h-1.2l-1.1,0l-1.2,0.1
	l-1.2,0.1l-1.2,0.1l-1,0.1l-1,0.1h-1L386.5,229.2z M289.1,238.6l-0.6,0l-0.6-0.1l-0.6-0.1l-0.6-0.1l-0.5-0.1l-0.5-0.1l-0.5-0.1
	l-0.5-0.2l-0.5-0.2l-0.5-0.2l-0.4-0.2l-0.4-0.2l-0.4-0.2l-0.4-0.3l-0.4-0.3l-0.4-0.3l-0.4-0.3l-0.4-0.3l-0.3-0.3l-0.3-0.3l-0.3-0.4
	l-0.3-0.4l-0.3-0.4l-0.3-0.4l-0.3-0.4l-0.2-0.4L278,232l-0.2-0.4l-0.2-0.5l-0.2-0.5l-0.2-0.5l-0.1-0.5l-0.2-0.5l-0.1-0.6l-0.1-0.6
	l-0.1-0.6l-0.1-0.7l-0.1-0.7l-0.1-1.4l-0.1-1.5l0-1.6l0.1-1.7l0.1-1.8l0.2-1.9l0.2-2l0.3-2l0.4-2.1l0.4-2.2l0.4-2.3l0.5-2.4l0.6-2.6
	l0.6-2.5l0.6-2.4l0.6-2.3l0.6-2.2l0.6-2.1l0.7-2l0.7-1.9l0.7-1.9l0.7-1.7l0.7-1.6l0.7-1.5l0.8-1.4l0.8-1.3l0.4-0.6l0.4-0.6l0.4-0.6
	l0.4-0.6l0.4-0.5l0.4-0.5l0.4-0.5l0.4-0.5l0.5-0.5l0.4-0.4l0.5-0.4l0.5-0.4l0.5-0.4l0.5-0.4l0.5-0.3l0.5-0.4l0.5-0.3l0.5-0.3
	l0.5-0.3l0.5-0.3l0.6-0.3l0.5-0.3l0.6-0.2l0.6-0.2l0.6-0.2l0.6-0.2l0.6-0.2l0.6-0.1l0.6-0.1l0.6-0.1l0.6-0.1l0.6-0.1l0.7-0.1l0.7,0
	l0.7,0h0.7h0.6l0.6,0l0.6,0l0.6,0l0.6,0.1l0.6,0.1l0.5,0.1l0.5,0.1l0.5,0.1l0.5,0.2l0.5,0.2l0.5,0.2l0.4,0.2l0.4,0.2l0.4,0.2
	l0.4,0.2l0.4,0.3l0.4,0.3l0.4,0.3l0.4,0.3l0.4,0.3l0.3,0.3l0.3,0.4l0.3,0.4l0.3,0.4l0.3,0.4l0.3,0.4l0.2,0.4l0.2,0.4l0.2,0.4
	l0.2,0.4l0.2,0.5l0.2,0.5l0.2,0.5l0.1,0.5l0.1,0.5l0.1,0.6l0.1,0.6l0.1,0.6l0.1,0.6l0.1,1.4l0,1.5v1.5l0,1.6l-0.1,1.7l-0.2,1.8
	l-0.2,1.9l-0.3,2l-0.3,2l-0.4,2.2l-0.4,2.2l-0.5,2.3l-0.6,2.6l-0.6,2.6l-0.6,2.5l-0.6,2.4l-0.6,2.3l-0.7,2.2l-0.7,2l-0.7,2l-0.7,1.9
	l-0.7,1.8l-0.8,1.7l-0.8,1.6l-0.8,1.5l-0.8,1.4l-0.4,0.7l-0.4,0.6l-0.4,0.6l-0.4,0.6l-0.4,0.5l-0.4,0.5l-0.4,0.5l-0.4,0.5l-0.5,0.5
	l-0.4,0.5l-0.5,0.4l-0.5,0.4l-0.5,0.4l-0.5,0.4l-0.5,0.4l-0.5,0.4l-0.5,0.4l-0.5,0.3l-0.5,0.3l-0.5,0.3l-0.6,0.3l-0.6,0.3l-0.6,0.2
	l-0.6,0.2l-0.6,0.2l-0.6,0.2l-0.6,0.2l-0.6,0.1l-0.6,0.1l-0.6,0.1l-0.6,0.1l-0.7,0.1l-0.7,0.1l-0.7,0l-0.7,0h-0.7h-0.6L289.1,238.6z
	 M512.6,103.2h-0.8l-1.9,0.1l-2.3,0.2l-1,0.1l-0.8,0.1l-0.7,0.1l-0.7,0.1l-0.7,0l-0.7,0h-0.7h-0.8h-0.9h-0.9l-0.9,0l-0.9,0l-0.9,0
	l-0.9-0.1l-0.9-0.1l-1-0.1l-2-0.2l-1.7-0.1l-0.8,0h-0.7h-0.6l-0.5,0l-0.5,0.1l-0.4,0.1l-0.4,0.1l-0.4,0.1l-0.3,0.2l-0.3,0.2
	l-0.2,0.2l-0.2,0.3l-0.2,0.3l-0.2,0.3l-0.1,0.4l-0.1,0.4l-0.2,0.9l-0.2,1.1l-0.1,1.3l-0.2,1.5l-0.2,1.7l-0.3,1.9l-0.4,2.5l-0.3,2
	l-0.3,1.8l-0.3,1.7l-0.3,1.7l-0.4,1.9l-0.4,2.2l-0.5,2.7l-0.4,2.4l-0.4,2.4l-0.4,2.4l-0.5,2.5l-0.4,2.5l-0.5,2.5l-0.5,2.5l-0.5,2.6
	l-0.5,2.6l-0.5,2.6l-0.5,2.6l-0.5,2.7l-0.5,2.7l-0.6,2.7l-0.6,2.8l-0.6,2.8l-0.5,2.6l-0.6,2.6l-0.5,2.6l-0.5,2.6l-0.5,2.6l-0.5,2.6
	l-0.5,2.5l-0.5,2.5l-0.6,2.5l-0.5,2.5l-0.5,2.4l-0.5,2.4l-0.5,2.4l-0.5,2.4l-0.5,2.4l-0.5,2.3l-0.3,1.1l-0.3,1.1l-0.3,1.1l-0.3,1.1
	l-0.3,1.1l-0.3,1.1l-0.3,1.1l-0.3,1.1l-0.2,0.8l-0.2,0.8l-0.2,0.8l-0.3,0.8l-0.3,0.7l-0.3,0.7l-0.3,0.7l-0.3,0.7l-0.4,0.7l-0.4,0.7
	l-0.4,0.6L458,229l-0.4,0.6l-0.4,0.6l-0.4,0.6l-0.5,0.6l-0.5,0.6l-0.5,0.5l-0.5,0.5l-0.5,0.5l-0.5,0.5l-0.5,0.5l-0.5,0.4l-0.5,0.4
	l-0.6,0.4l-0.6,0.4l-0.5,0.4l-0.6,0.3l-0.6,0.3l-0.6,0.3l-0.6,0.3l-0.6,0.3l-0.4,0.1l-0.4,0.1l-0.4,0.1l-0.5,0.1l-1.1,0.2l-1.1,0.1
	l-1.1,0.1l-1,0.1h-0.8h-0.6l-0.5-0.1l-0.4-0.1l-0.3-0.1l-0.3-0.1l-0.2-0.2l-0.1-0.2l-0.1-0.3l0-0.3v-0.3l0.1-0.3l0.1-0.3l0.1-0.4
	l0.3-0.8l0.4-0.8l0.5-1l0.4-1l0.4-1l0.4-1l0.4-1l0.3-1l0.3-1l0.3-1.1l0.2-1.1l0.2-1.1l0.1-1.1l0.1-1.1l0-1.2l0-1.3l0-1.3l-0.1-1.3
	l-0.1-1.1l-0.1-1.2l-0.2-1.1l-0.2-1.1l-0.3-1.1l-0.3-1.2l-0.4-1.1l-0.4-1.1l-0.5-1.1l-0.5-1.1l-0.6-1.1l-0.7-1.1l-0.7-1l-0.8-1
	l-0.9-1l-1-0.9l-1-0.9l-1.1-0.9l-1.2-0.8l-1.3-0.8l-1.4-0.7l-1.5-0.7l-1.6-0.6l-1.7-0.6l-1.8-0.5l-1.9-0.4l-1.9-0.4l-2.1-0.3
	l-2.2-0.3l-2.3-0.2l-2.4-0.1l-2.6,0l-2.6,0l-2.5,0.1l-2.4,0.2l-2.3,0.2l-2.2,0.3l-2.1,0.4l-2,0.4l-1.9,0.5l-1.9,0.6l-1.8,0.6
	l-1.7,0.7l-1.7,0.8l-1.6,0.8l-1.6,0.9l-1.5,0.9l-1.5,1l-1.4,1l-1.4,1.1l-1.4,1.1l-1.3,1.2l-1.3,1.2l-1.3,1.3l-1.3,1.3l-1.3,1.4
	l-1.3,1.4l-1.3,1.5l-1.2,1.5l-1.3,1.5l-2.6,3.2l-2.7,3.3l-1.1,1.4l-1.1,1.5l-1.1,1.5l-1.1,1.6l-1.1,1.6l-1.1,1.6l-0.6,0.8l-0.6,0.8
	l-0.6,0.8l-0.6,0.7l-0.7,0.8l-0.7,0.7l-0.7,0.7l-0.8,0.7l-0.8,0.6l-0.8,0.6l-0.8,0.6l-0.9,0.5l-0.9,0.5l-1,0.5l-1,0.4l-1,0.4
	l-1.1,0.4l-1.1,0.3l-1.2,0.3l-1.2,0.2l-1.3-0.1l-1.2,0l-1.1-0.1l-0.9-0.1l-0.4-0.1l-0.4-0.1l-0.3-0.1l-0.3-0.1l-0.2-0.1l-0.2-0.1
	l-0.2-0.1l-0.1-0.2l-0.1-0.2v-0.2l0-0.2l0.1-0.2l0.1-0.3l0.2-0.3l0.2-0.3l0.2-0.3l0.6-0.8l0.8-0.9l0.9-1l1.1-1.2l1.1-1.1l1-1.1
	l1-1.1l1-1.1l0.9-1.1l0.9-1.1l0.9-1.1l0.9-1.1l0.8-1.1l0.8-1.1l0.8-1.1l0.7-1.1l0.7-1.1l0.7-1.1l0.6-1.1l0.6-1.1l0.6-1.1l0.6-1.1
	l0.5-1.2l0.5-1.1l0.5-1.2l0.5-1.2l0.5-1.2l0.4-1.3l0.4-1.3l0.4-1.3l0.4-1.3l0.4-1.4l0.4-1.4l0.4-1.4l0.3-1.5l0.4-1.5l0.3-1.3
	l0.2-1.2l0.2-1.2l0.2-1.2l0.2-1.2l0.2-1.2l0.1-1.2l0.1-1.1l0.1-1.1l0-1.1v-1.1v-1.1l0-1.1l-0.1-1.1l-0.1-1.1l-0.1-1l-0.2-1l-0.2-1
	l-0.2-1l-0.2-1l-0.2-0.9l-0.3-0.9l-0.3-0.9l-0.3-0.9l-0.3-0.9l-0.4-0.9l-0.4-0.9l-0.4-0.8l-0.4-0.8l-0.4-0.8l-0.5-0.8l-0.5-0.8
	l-0.5-0.7l-0.5-0.7l-0.6-0.7l-0.6-0.7l-0.6-0.6l-0.6-0.6l-0.6-0.6l-0.7-0.6l-0.7-0.5l-0.7-0.5l-0.7-0.5l-0.7-0.5l-0.8-0.4l-0.8-0.4
	l-0.8-0.4l-0.8-0.4l-0.9-0.4l-0.8-0.3l-0.9-0.3l-0.9-0.3l-0.9-0.3l-0.9-0.3l-1-0.2l-1-0.2l-1-0.2l-1-0.2l-1-0.1l-1.1-0.1l-1.1-0.1
	l-1.1,0l-1.1,0l-1.1,0h-1.2l-1.1,0.1l-1.1,0l-1.1,0.1l-1.1,0.1l-1.1,0.1l-1.1,0.1l-1.1,0.2l-1.1,0.2l-1.1,0.2l-1,0.2l-1,0.3l-1,0.3
	l-1,0.3l-1,0.3l-0.9,0.4l-1.4,0.5l-1.3,0.6l-1.2,0.6l-1.1,0.6l-1.1,0.6l-1,0.6l-0.9,0.5l-0.8,0.5l-1.4,1l-1.2,0.8l-0.5,0.3l-0.4,0.3
	l-0.4,0.2l-0.3,0.1l-0.3,0.1l-0.2-0.1l-0.1-0.1l-0.1-0.2l0-0.3v-0.4l0.1-0.5l0.1-0.7l0.4-1.8l0.5-2.3l0.6-2.9l0.8-3.6l3.4-16.1
	l0.3-1.7l0.4-1.7l0.4-1.7l0.4-1.7l0.4-1.8l0.4-1.8l0.4-1.8l0.4-1.8l0.3-1l0.3-1l0.3-0.9l0.3-0.9l0.6-1.7l0.6-1.6l0.5-1.4l0.5-1.3
	l0.2-0.6l0.2-0.5l0.1-0.5l0.1-0.5l0-0.4l0-0.4l-0.1-0.4l-0.2-0.3l-0.2-0.3l-0.3-0.3l-0.4-0.2l-0.4-0.2l-0.5-0.2l-0.6-0.1l-0.7-0.1
	l-0.8-0.1h-0.9h-1l-1.1,0.1l-1.2,0.1l-0.9,0.1l-0.9,0.1l-0.9,0l-0.9,0.1l-0.9,0H288l-0.9,0h-0.8h-0.8h-0.8l-0.9,0l-0.8,0l-0.9,0
	l-0.9-0.1l-0.9-0.1l-0.9-0.1l-1.9-0.1l-1.6-0.1l-1.3-0.1h-1.1h-0.4l-0.4,0l-0.4,0.1l-0.3,0.1l-0.3,0.1l-0.2,0.1l-0.2,0.1l-0.2,0.2
	l-0.1,0.2l-0.1,0.3l-0.1,0.3l-0.1,0.3L271,107l-0.1,1l0,1.1l-0.1,1.3l-0.2,1.5l-0.2,1.7l-0.3,2.2l-0.4,2.3l-0.4,2.3l-0.4,2.4
	l-0.4,2.4l-0.4,2.5l-0.4,2.5l-0.4,2.6l-0.4,2.1l-0.4,2.2l-0.4,2.2l-0.4,2.3l-0.4,2.4l-0.5,2.5l-0.5,2.5l-0.5,2.6l-0.5,2.6l-0.5,2.7
	l-0.6,2.8l-0.6,2.8l-0.6,2.9l-0.6,3l-0.6,3.1l-0.6,3.1l-0.7,3.1l-0.6,3.1l-0.6,3l-0.6,2.9l-0.6,2.9l-0.6,2.8l-0.6,2.7l-0.6,2.6
	l-0.6,2.6l-0.6,2.5l-0.5,2.5l-0.5,2.4l-0.5,2.3l-0.5,2.3l-0.5,2.2l-0.5,2.1l-1.3,5.3l-1.1,4.6l-1,3.9l-0.8,3.3l-0.7,2.7l-0.5,2.2
	l-0.2,0.9l-0.2,0.8l-0.1,0.7l-0.1,0.6v0.5l0,0.4l0.1,0.3l0.1,0.3l0.2,0.2l0.2,0.1l0.3,0l0.3,0l0.3-0.1l0.4-0.1l0.4-0.2l0.5-0.2
	l1.1-0.5l1.3-0.6l1.1-0.4l1.1-0.4l0.6-0.2l0.6-0.2l0.6-0.2l0.7-0.2l0.6-0.1l0.7-0.1l0.7-0.1l0.7-0.1l0.8-0.1l0.8-0.1h0.8l0.8,0
	l0.8,0l0.9,0.1l0.9,0.1l0.9,0.2l1,0.2l1,0.2l1,0.3l1,0.3l1.1,0.4l1.1,0.4l1.1,0.4l1.1,0.5l1.2,0.6l1.2,0.6l1.2,0.6l1.3,0.7l1.5,0.7
	l1.6,0.7l1.8,0.6l1.9,0.6l1.9,0.6l2,0.5l2.1,0.4l2.1,0.4l2.2,0.4l2.3,0.3l2.3,0.3l2.4,0.3l2.4,0.2l2.4,0.2l2.4,0.1l2.4,0.1l2.5,0.1
	h2.4l2.4,0l2.4-0.1l2.4-0.1l2.3-0.2l2.3-0.2l2.2-0.3l2.2-0.3l2.1-0.4l2.1-0.4l2-0.4l1.9-0.5l1.8-0.5l1.7-0.6l1.6-0.6l1-0.4l0.8-0.4
	l0.6-0.4l0.5-0.3l0.4-0.3l0.4-0.2l0.1,0h0.1h0.1l0.1,0.1l0.1,0.1l0.1,0.1l0.1,0.2l0,0.2l0.1,0.6l0.1,0.8l0.1,1.1l0.1,1.3l0.1,1.6
	l0.2,1.9l0.2,1.6l0.2,1.6l0.3,1.6l0.4,1.5l0.4,1.5l0.4,1.5l0.5,1.4l0.5,1.4l0.6,1.3l0.6,1.3l0.7,1.3l0.8,1.2l0.8,1.2l0.9,1.2
	l0.9,1.1l1,1.1l0.8,0.8l0.8,0.8l0.8,0.8l0.8,0.7l0.9,0.7l0.9,0.7l0.9,0.7l1,0.6l1,0.6l1,0.6l1,0.5l1.1,0.5l1.1,0.5l1.1,0.5l1.1,0.4
	l1.1,0.4l1.1,0.4l1.2,0.3l1.2,0.4l1.2,0.4l1.2,0.3l1.3,0.3l1.3,0.3l1.3,0.2l1.4,0.2l1.4,0.2l1.4,0.2l1.4,0.1l1.5,0.1l1.5,0.1
	l1.5,0.1h1.5l3-0.1l2.9-0.2l2.7-0.3l2.6-0.4l2.5-0.4l2.4-0.5l2.2-0.6l2.1-0.6l2-0.7l1.9-0.8l1.8-0.8l1.6-0.8l1.5-0.8l1.4-0.9
	l1.3-0.9l1.2-0.9l1.1-0.9l1-0.9l0.8-0.9l0.7-0.8l0.6-0.8l0.5-0.8l0.4-0.7l0.3-0.7l0.2-0.6l0.1-0.5l0-0.5l-0.1-0.4l-0.2-0.3l-0.4-0.2
	l-0.4-0.1h-0.5l-0.9,0.1l-0.8,0.1l-0.8,0.2l-0.8,0.2l-0.8,0.2l-0.8,0.2l-0.7,0.2l-0.7,0.3l-1.5,0.5l-1.4,0.5l-1.4,0.5l-1.4,0.6
	l-1.5,0.6l-1.5,0.5l-0.8,0.3l-0.8,0.2l-0.8,0.3l-0.8,0.2l-0.8,0.2l-0.8,0.2l-0.9,0.2l-0.9,0.1l-0.9,0.1l-0.9,0.1l-0.9,0.1h-1H407
	l-0.9,0l-0.9,0l-0.9-0.1l-0.8-0.1l-0.9-0.1l-0.8-0.1l-0.8-0.2l-0.8-0.2l-0.8-0.2l-0.8-0.2l-0.8-0.2l-0.7-0.2l-0.7-0.3l-0.7-0.3
	l-0.7-0.3l-0.7-0.3l-0.7-0.3l-0.6-0.4l-0.6-0.4l-0.6-0.4l-0.6-0.4l-0.6-0.4l-0.6-0.4l-0.6-0.5l-0.5-0.5l-0.5-0.5l-0.5-0.5l-0.5-0.5
	l-0.5-0.5l-0.5-0.6l-0.4-0.6l-0.5-0.7l-0.4-0.7l-0.4-0.7l-0.4-0.7l-0.4-0.7l-0.4-0.7l-0.3-0.7l-0.4-0.8l-0.3-0.8l-0.3-0.8l-0.3-0.8
	l-0.2-0.8l-0.2-0.9l-0.2-0.8l-0.2-0.9l-0.2-0.9l-0.2-1l-0.1-1l0-0.9l0-0.9l0.1-0.4l0-0.4l0.1-0.4l0.1-0.4l0.1-0.4l0.1-0.4l0.1-0.3
	l0.1-0.3l0.3-0.6l0.4-0.6l0.4-0.5l0.4-0.5l0.5-0.5l0.5-0.4l0.6-0.4l0.6-0.4l0.8-0.4l0.8-0.4l0.8-0.3l0.9-0.3l0.9-0.3l0.9-0.2
	l0.9-0.2l1-0.1l1-0.1l1-0.1l1,0l1,0h1l1,0l1,0l1,0.1l1.7,0.1l1.7,0.1l1.7,0.2l1.7,0.2l1.6,0.2l1.7,0.3l1.6,0.3l1.6,0.3l1.6,0.3
	l1.6,0.3l1.6,0.3l1.6,0.3l1.6,0.3l1.6,0.3l1.7,0.3l1.7,0.3l2.3,0.4l2.4,0.4l2.4,0.4l2.5,0.4l2.5,0.4l2.5,0.3l2.5,0.3l2.6,0.3
	l2.6,0.3l2.5,0.2l2.5,0.1l2.5,0.1l2.5,0l2.4-0.1l2.4-0.1l2.3-0.2l2.3-0.3l2.2-0.4l2.1-0.4l2-0.5l1.9-0.6l1.8-0.7l1.8-0.9l1.6-1
	l1.5-1.1l1.4-1.2l1.2-1.3l1.1-1.5l1-1.6l0.8-1.7l0.6-1.9l0.5-2l0.3-1.7l0.3-1.7l0.3-1.7l0.3-1.7l0.3-1.7l0.3-1.7l0.3-1.7l0.3-1.7
	l0.4-2.1l0.4-2.2l0.4-2.1l0.4-2.1l0.4-2.2l0.4-2.1l0.4-2.1l0.4-2.1l0.4-1.7l0.4-1.7l0.3-1.8l0.4-1.8l0.4-1.8l0.4-1.8l0.4-1.8
	l0.4-1.8l0.4-1.9l0.4-1.9l0.4-1.9l0.4-1.9l0.4-1.9l0.4-1.9l0.4-1.9l0.4-1.9l0.5-2.6l0.5-2.6l0.6-2.6l0.5-2.6l0.5-2.6l0.5-2.5
	l0.5-2.5l0.5-2.5l0.5-2.5l0.5-2.4l0.5-2.5l0.5-2.4l0.5-2.4l0.5-2.4l0.5-2.4l0.5-2.3l0.6-2.6l0.5-2.1l0.5-1.8l0.4-1.6l0.4-1.6
	l0.5-1.7l0.5-2l0.6-2.5l0.3-1l0.3-1l0.3-0.9l0.3-0.9l0.5-1.6l0.5-1.4l0.4-1.2l0.3-1.1l0.1-0.4l0.1-0.4l0-0.4v-0.3l-0.1-0.3l-0.1-0.3
	l-0.2-0.2l-0.2-0.2l-0.3-0.2l-0.4-0.2l-0.4-0.1l-0.5-0.1l-0.5-0.1l-0.6,0H512.6z M181.5,239.5l-0.7-0.1l-0.7-0.1l-0.6-0.1l-0.6-0.1
	l-0.6-0.1l-0.6-0.1l-0.6-0.2l-0.5-0.2l-0.5-0.2l-0.5-0.2l-0.5-0.3l-0.5-0.3l-0.5-0.3l-0.4-0.3l-0.4-0.3l-0.4-0.4l-0.4-0.3l-0.4-0.4
	l-0.4-0.4l-0.4-0.4l-0.3-0.4l-0.3-0.4l-0.3-0.4l-0.3-0.5l-0.3-0.5l-0.3-0.5l-0.2-0.5l-0.2-0.5l-0.2-0.5l-0.2-0.6l-0.2-0.6l-0.2-0.6
	l-0.1-0.6l-0.1-0.7l-0.1-0.7l-0.1-0.7l-0.1-0.8l-0.1-0.8l-0.1-0.8l0-0.8l0-0.8v-1.8l0.1-1.9l0.1-2l0.2-2.1l0.2-2.2l0.3-2.3l0.4-2.4
	l0.4-2.5l0.5-2.6l0.5-2.7l0.6-2.7l0.6-2.6l0.6-2.5l0.6-2.4l0.6-2.3l0.7-2.2l0.7-2.1l0.7-2l0.7-1.9l0.7-1.8l0.8-1.7l0.8-1.6l0.4-0.7
	l0.4-0.7l0.4-0.7l0.4-0.7l0.4-0.6l0.4-0.6l0.4-0.6l0.4-0.6l0.4-0.6l0.4-0.5l0.5-0.5l0.4-0.5l0.5-0.5l0.5-0.5l0.5-0.4l0.5-0.4
	l0.5-0.4l0.5-0.4l0.5-0.4l0.5-0.4l0.5-0.3l0.5-0.3l0.6-0.3l0.6-0.3l0.6-0.3l0.6-0.3l0.6-0.3l0.6-0.2l0.6-0.2l0.6-0.2l0.6-0.2
	l0.6-0.1l0.7-0.1l0.7-0.1l0.7-0.1l0.7-0.1l0.7-0.1l0.7-0.1l0.7,0h0.7h0.7l0.7,0l0.7,0.1l0.7,0.1l0.7,0.1l0.6,0.1l0.6,0.1l0.6,0.1
	l0.6,0.2l0.6,0.2l0.6,0.2l0.5,0.2l0.5,0.2l0.5,0.2l0.5,0.3l0.5,0.3l0.4,0.3l0.4,0.3l0.4,0.3l0.4,0.4l0.4,0.4l0.4,0.4l0.4,0.4
	l0.4,0.4l0.3,0.4l0.3,0.4l0.3,0.5l0.3,0.5l0.3,0.5l0.2,0.5l0.2,0.5l0.2,0.6l0.2,0.6l0.2,0.6l0.2,0.6l0.1,0.7l0.1,0.7l0.1,0.7
	l0.1,0.7l0.1,0.7l0.1,0.8l0,0.8l0.1,0.8v0.9l0,1.8l-0.1,1.9l-0.1,2l-0.2,2.1l-0.3,2.2l-0.3,2.3l-0.4,2.4l-0.4,2.5l-0.5,2.6l-0.5,2.7
	l-0.6,2.7l-0.6,2.6l-0.6,2.5l-0.6,2.4l-0.6,2.3l-0.7,2.2l-0.7,2.1l-0.7,1.9l-0.7,1.9l-0.7,1.8l-0.8,1.7l-0.8,1.6l-0.4,0.8l-0.4,0.7
	l-0.4,0.7l-0.4,0.7l-0.4,0.6l-0.4,0.6l-0.4,0.6l-0.4,0.6l-0.4,0.6l-0.4,0.5l-0.5,0.5l-0.4,0.5l-0.5,0.5l-0.5,0.5l-0.5,0.4l-0.5,0.4
	L198,235l-0.5,0.4l-0.5,0.4l-0.5,0.4l-0.5,0.4l-0.5,0.3l-0.6,0.3l-0.6,0.3l-0.6,0.3l-0.6,0.3l-0.6,0.3l-0.6,0.2l-0.6,0.2l-0.6,0.2
	l-0.7,0.2l-0.6,0.1l-0.7,0.1l-0.7,0.1l-0.7,0.1l-0.7,0.1l-0.7,0.1l-0.7,0.1h-0.7l-0.7,0l-0.7,0h-0.7L181.5,239.5z M61.6,170.1
	l-0.9-0.1l-0.8-0.1l-0.7-0.1l-0.6-0.2l-0.6-0.2l-0.5-0.2l-0.5-0.3l-0.4-0.3l-0.4-0.4l-0.3-0.4l-0.2-0.4l-0.2-0.5l-0.1-0.5l-0.1-0.6
	l0-0.6v-0.7l0-0.7l0.1-0.7l0.1-0.8l0.1-0.8l0.2-0.9l0.2-1l0.4-2l0.5-2.3l3.6-16.8l0.4-1.6l0.4-1.6l0.4-1.6l0.4-1.6l0.4-1.6l0.4-1.6
	l0.4-1.6l0.4-1.7l0.4-1.7l0.4-1.6l0.4-1.5l0.4-1.3l0.2-0.6l0.2-0.6l0.2-0.5l0.3-0.5l0.3-0.4l0.3-0.4l0.3-0.4l0.4-0.4l0.4-0.4
	l0.4-0.3l0.4-0.3l0.5-0.3l0.5-0.3l0.6-0.2l0.6-0.2l0.7-0.2l0.7-0.2l0.8-0.1l0.8-0.1l0.9-0.1l1-0.1l1,0h1.1h1.2l0.8,0l0.8,0.1
	l0.8,0.1l0.8,0.1l0.8,0.1l0.8,0.1l0.7,0.1l0.8,0.1l1.4,0.3l1.4,0.4l1.3,0.4l1.2,0.5l0.8,0.4l0.8,0.4l0.8,0.4l0.7,0.4l0.7,0.4
	l0.7,0.5l0.6,0.5l0.6,0.5l0.6,0.5l0.5,0.6l0.5,0.6l0.5,0.6l0.4,0.7l0.4,0.7l0.4,0.7l0.4,0.7l0.3,0.8l0.3,0.8l0.3,0.8l0.2,0.9
	l0.2,0.9l0.1,0.9l0.1,0.9l0.1,1l0,1l0,1l0,1.1l-0.1,1.1l-0.1,1.1l-0.2,1.1l-0.2,1.1l-0.2,1.2l-0.4,2l-0.5,1.9l-0.5,1.9l-0.6,1.8
	l-0.3,0.9l-0.3,0.9l-0.3,0.8l-0.3,0.8l-0.4,0.8l-0.4,0.8l-0.4,0.8l-0.4,0.8l-0.4,0.7l-0.4,0.7l-0.4,0.7l-0.4,0.7l-0.5,0.7l-0.5,0.7
	l-0.5,0.6l-0.5,0.6l-0.5,0.6l-0.5,0.6l-0.6,0.6l-0.5,0.6l-0.6,0.5l-0.6,0.5l-0.6,0.5l-0.6,0.5l-1,0.7l-1.1,0.7l-1.1,0.6l-1.1,0.5
	l-1.1,0.5l-1.1,0.4l-1.2,0.4l-1.1,0.4l-1.2,0.3l-1.2,0.3L75,169l-1.2,0.2l-1.2,0.2l-1.2,0.2l-1.2,0.2l-1.3,0.1l-1.4,0.1L66,170
	l-1.2,0.1l-1.1,0h-1.1L61.6,170.1z M42.8,99.5l-0.7,0l-0.7,0.1l-0.6,0.1l-0.7,0.1l-0.6,0.2l-0.6,0.2l-0.6,0.2l-0.5,0.3l-0.5,0.3
	l-0.5,0.4l-0.4,0.4l-0.4,0.5l-0.4,0.5l-0.3,0.6l-0.3,0.7l-0.2,0.7l-0.2,0.8l-0.1,0.9l0,1v1.3l-0.1,1.3l-0.1,1.4l-0.1,1.3l-0.2,1.4
	l-0.2,1.4l-0.2,1.4l-0.2,1.4l-0.5,2.7l-0.5,2.7l-0.5,2.7l-0.5,2.7l-0.6,3l-0.6,3l-0.6,3.1l-0.6,3.2l-0.6,3.2l-0.6,3.2l-0.6,3.1
	l-0.6,3.1l-0.6,3.1l-0.6,2.9l-0.6,2.8l-0.6,2.7l-0.5,2.6l-0.5,2.4l-0.4,2.2l-0.4,2l-0.6,3l-0.6,2.9l-0.6,2.9l-0.6,2.8l-0.6,2.8
	l-0.6,2.7l-0.6,2.7l-0.6,2.6l-0.6,2.6l-0.6,2.5l-0.6,2.5l-0.5,2.4l-0.6,2.3l-0.5,2.3l-0.6,2.2l-0.5,2.2l-0.4,1.7l-0.4,1.6l-0.4,1.6
	l-0.4,1.6l-0.4,1.6l-0.5,1.6l-0.4,1.6l-0.4,1.6l-0.4,1.5l-0.4,1.6l-0.4,1.5L7.7,235l-0.4,1.5L6.9,238l-0.4,1.5L6.2,241L6,241.6
	l-0.1,0.6l-0.1,0.6v0.5l0,0.5l0.1,0.4l0.1,0.4l0.1,0.4l0.1,0.4l0.2,0.3l0.2,0.3l0.3,0.3l0.3,0.3l0.3,0.2l0.3,0.2l0.4,0.2l0.4,0.2
	l0.4,0.1l0.4,0.1l0.4,0.1l0.4,0.1l0.5,0.1l0.5,0l0.5,0l1.1,0l1.1,0l1.1-0.1l1.1-0.1l1.3-0.1l1.3-0.1l1.3,0l1.4,0l1.4,0l1.4,0.1
	l1.5,0.1l1.4,0.1l1.5,0.1l1.4,0.1l1.5,0.1l1.4,0.1l1.4,0.1l1.4,0h1.3l1.3,0l0.5,0h0.7l0.7,0l0.8,0l0.7-0.1l0.7-0.1l0.3-0.1l0.3-0.1
	l0.3-0.1l0.2-0.1l0.2-0.2l0.2-0.2l0.1-0.1l0-0.1l0-0.1v-0.2v-0.3l0-0.3l-0.1-0.3l-0.1-0.4l-0.2-0.9l-0.3-0.9l-0.7-2.2l-0.8-2.5
	l-0.4-1.4l-0.3-1.4l-0.1-0.7l-0.1-0.7l-0.1-0.8l-0.1-0.8l-0.1-0.8l0-0.8v-0.8v-0.8l0.1-0.8l0.1-0.8l0.1-0.8l0.2-0.8l9-35.5l0.5-1.9
	l0.5-1.7l0.5-1.5l0.5-1.3l0.5-1.1l0.6-1l0.5-0.8l0.6-0.6l0.6-0.4l0.6-0.3l0.6-0.2l0.6,0l0.6,0.1l0.6,0.2l0.6,0.4l0.6,0.4l0.6,0.5
	l0.6,0.6l0.6,0.7L62,184l0.6,0.9l0.7,1l0.7,1l0.7,1.1l1.3,2.3l1.4,2.5l1.4,2.6l1.4,2.6l1.1,2.1l1.1,2.1l1.1,2.1l1.1,2.1l1.1,2.2
	l1.1,2.1l1.1,2.1l1.1,2.1l1.1,2.1l1.1,2.1l1.1,2l1.1,2l1.1,2l1.2,1.9l1.1,1.9l1.2,1.8l1.9,2.7l2,2.5l2.2,2.2l2.3,2l2.4,1.8l2.5,1.6
	l2.6,1.4l2.7,1.2l2.8,1.1l2.8,0.9l2.9,0.8l3,0.6l3,0.5l3.1,0.4l3.1,0.3l3.2,0.2l3.2,0.1h3.2l3.2-0.1l3.3-0.1l3.3-0.2l3.2-0.2
	l3.3-0.2l3.2-0.3l6.4-0.5l6.3-0.5l3.1-0.2l3-0.2l3-0.1l2.9,0h0.7h0.7h0.7l0.7,0l1.4,0l1.4-0.1l1.4-0.1l1.4-0.1l1.4-0.1l1.4-0.2
	l1.4-0.2l1.3-0.2l1.3-0.2l1.3-0.3l1.3-0.3l1.3-0.3l1.3-0.3l1.3-0.3l1.2-0.4l1.2-0.4l1.2-0.4l1.2-0.4l1.2-0.4l1.1-0.5l1.1-0.5
	l1.1-0.5l1.1-0.5l1.1-0.6l1.1-0.6l1.1-0.6l1.1-0.6l1.1-0.6l1.1-0.7l1-0.7l1-0.7l1-0.8l1-0.8l1-0.8l1-0.9l1-0.9l0.9-0.9l0.9-0.9
	l0.9-0.9l0.9-0.9l0.9-1l0.8-1l0.8-1l0.8-1l0.7-1.1l0.7-1.1l0.7-1.1l0.7-1.1l0.6-1.1l0.6-1.1l0.6-1.1l0.6-1.2l0.6-1.2l0.5-1.2
	l0.5-1.2l0.5-1.3l0.5-1.2l0.4-1.3l0.4-1.3l0.4-1.3l0.4-1.3l0.4-1.4l0.3-1.4l0.3-1.4l0.3-1.4l0.3-1.4l0.2-1.4l0.2-1.4l0.2-1.4
	l0.1-1.3l0.1-1.3l0.1-1.3l0.1-1.3v-1.3l0-1.2l0-1.2l-0.1-1.2l-0.1-1.2l-0.1-1.1l-0.2-1.1l-0.2-1.1l-0.3-1.1l-0.3-1.1l-0.3-1.1
	l-0.3-1l-0.4-1l-0.4-1l-0.4-1l-0.5-1l-0.5-0.9l-0.5-0.9l-0.5-0.9l-0.6-0.9l-0.6-0.8l-0.7-0.8l-0.7-0.8l-0.7-0.8l-0.7-0.7l-0.8-0.7
	l-0.8-0.7l-0.8-0.7l-0.8-0.7l-0.9-0.6l-0.9-0.6L231,158l-1-0.5l-1-0.5l-1-0.5L227,156l-1.1-0.5l-1.1-0.4l-1.1-0.4l-1.1-0.4l-1.2-0.4
	l-1.2-0.3l-1.2-0.3l-1.2-0.3l-1.3-0.3l-1.3-0.2l-1.3-0.2l-1.4-0.2l-1.4-0.2l-1.4-0.2l-1.5-0.1l-1.5-0.1l-1.5-0.1l-1.5,0h-1.6h-1.5
	l-1.5,0l-1.5,0.1l-1.5,0.1l-1.5,0.1l-1.5,0.2l-1.5,0.2l-1.4,0.2l-1.4,0.2l-1.4,0.3l-1.4,0.3l-1.3,0.3l-1.4,0.3L182,154l-1.3,0.4
	l-1.3,0.4l-1.3,0.4l-1.2,0.4l-1.3,0.4l-1.2,0.5l-1.2,0.5l-1.2,0.5l-1.2,0.6l-1.1,0.6l-1.2,0.6l-1.1,0.6l-1.1,0.7l-1.1,0.7l-1.1,0.7
	l-1.1,0.7l-1.1,0.8l-1,0.8l-1.6,1.3l-1.5,1.3l-1.5,1.4l-1.4,1.4l-1.4,1.5l-1.3,1.5l-1.2,1.6l-1.2,1.6l-1.1,1.6l-1.1,1.7l-1,1.7
	l-1,1.7l-0.9,1.8l-0.9,1.8l-0.8,1.8l-0.8,1.8l-0.7,1.9l-0.6,1.9l-0.6,1.9l-0.5,1.9l-0.4,1.9l-0.4,1.9l-0.3,1.9l-0.3,1.9l-0.2,1.9
	l-0.2,1.9l-0.1,1.9v1.9l0.1,1.9l0.1,1.9l0.2,1.9l0.3,1.9l0.1,0.8l0.2,0.8l0.2,0.8l0.2,0.8l0.2,0.8l0.2,0.8l0.3,0.8l0.3,0.8l0.3,0.7
	l0.3,0.8l0.3,0.7l0.4,0.7l0.4,0.7l0.4,0.7l0.4,0.7l0.5,0.7l1.2,1.5l1.2,1.6l0.6,0.8l0.5,0.8l0.3,0.4l0.2,0.4l0.2,0.4l0.2,0.3
	l0.1,0.4l0.1,0.3l0.1,0.3l0,0.3l0,0.3l-0.1,0.3l-0.1,0.3l-0.2,0.3l-0.2,0.2l-0.3,0.2l-0.4,0.2l-0.4,0.2l-0.4,0.1l-0.5,0.1L145,242
	l-0.7,0.1l-2.9,0.1l-2.8-0.3l-2.7-0.5l-2.6-0.8l-2.5-1l-2.5-1.2l-2.4-1.5l-2.3-1.7l-2.2-1.8l-2.1-2l-2.1-2.2l-2-2.3l-1.9-2.4
	l-1.8-2.5l-1.7-2.6l-1.7-2.7l-1.6-2.8L105,211l-1.4-2.8l-1.3-2.9l-1.2-2.8l-1.2-2.8l-1.1-2.8l-1-2.7l-1-2.7l-0.9-2.6l-0.8-2.5
	l-0.7-2.4l-0.6-2.3l-0.5-2.2l-0.5-2l-0.4-1.9l2.5-0.5l2.4-0.6l2.3-0.6l2.3-0.6l2.2-0.7l2.1-0.8l2.1-0.8l2-0.8l1-0.4l1-0.4l0.9-0.4
	l0.9-0.4l0.9-0.5l0.9-0.5l0.9-0.5l0.9-0.5l0.9-0.5l0.8-0.5l0.8-0.5l0.8-0.5l0.8-0.5l0.8-0.6l0.8-0.6l0.7-0.6l1.5-1.2l1.4-1.3
	l1.3-1.4l1.2-1.5l1.1-1.5l1.1-1.6l1-1.6l0.9-1.7l0.8-1.7l0.7-1.7l0.6-1.8l0.5-1.8l0.4-1.8l0.3-1.8l0.3-1.8l0.1-1.9l0.1-1.8l-0.1-1.8
	l-0.2-1.8l-0.3-1.8l-0.4-1.8l-0.4-1.8l-0.6-1.7l-0.7-1.7l-0.8-1.7l-0.9-1.6l-1-1.6l-1.1-1.5l-1.2-1.5l-1.3-1.4l-1.5-1.3l-1.6-1.2
	l-0.8-0.6l-0.8-0.5l-0.8-0.5l-0.8-0.5l-0.8-0.5l-0.8-0.5l-0.8-0.4l-0.8-0.4l-0.8-0.4l-0.9-0.4l-0.9-0.4l-0.9-0.4l-0.9-0.4l-1-0.3
	l-1-0.3l-1-0.3l-1.1-0.3l-1.1-0.3l-1.1-0.3l-1.1-0.2l-1.2-0.2l-1.2-0.2l-1.3-0.2l-1.3-0.2l-1.4-0.1l-1.4-0.1l-1.5-0.1l-1.5-0.1
	l-1.6-0.1l-1.7,0l-1.7,0h-1.8h-2.1l-2.3,0h-2.5l-2.6,0l-2.6,0l-2.7,0l-2.7-0.1l-2.7,0l-2.7-0.1l-2.6-0.1l-2.5,0l-2.4-0.1l-2.1-0.1
	l-2,0l-1.7-0.1l-1.4-0.1l-2.6-0.2l-2.8-0.3l-1.4-0.1l-1.4-0.1L42.8,99.5z"/>
<path class="st3" d="M217,278L217,278l0.2-0.1L217,278z M60.7,263.8h-0.4H60h-0.3h-0.3l-0.2,0l-0.2,0.1l-0.2,0.1h0l-0.1,0l-0.2,0.1
	l-0.2,0.1l-0.2,0.1l-0.1,0.1l-0.1,0v0l0,0h0l-0.9,1.2l-0.9,1.1l-0.9,1.1l-0.9,1.1l-0.9,1.1l-0.9,1.1l-0.9,1.1l-0.9,1.1l-0.9,1.1
	l-0.9,1.1l-0.9,1.1l-0.9,1.1l-0.9,1.1l-0.9,1.1l-0.9,1.1l-0.9,1.1l-0.6-1.1l-0.6-1.1l-0.6-1.1l-0.6-1.1l-0.6-1.1l-0.5-1.1l-0.6-1.1
	l-0.5-1.1l-0.6-1.1l-0.5-1.1l-0.6-1.1l-0.5-1.1l-0.6-1.1l-0.6-1.1l-0.5-1.1l-0.6-1.1l-0.1-0.2l-0.1-0.2l-0.1-0.1l-0.2-0.1l0,0
	l-0.1,0l-0.1-0.1L33,264l-0.2-0.1l-0.2,0l-0.3,0h-0.1h0h-0.4h-0.4H31h-0.4l-0.5,0l-0.4,0.1l-0.2,0.1l-0.2,0.1l-0.2,0.1l-0.2,0.1
	l-0.1,0.1l-0.1,0.1l-0.1,0.1l-0.1,0.2l-0.1,0.1l-0.1,0.2l-0.1,0.2l0,0.2l-0.3,1.4l-0.2,1.4l-0.2,1.4l-0.2,1.4l-0.3,1.4l-0.2,1.4
	l-0.2,1.4l-0.2,1.4l-0.2,1.4l-0.2,1.4l-0.2,1.4l-0.2,1.4l-0.2,1.4l-0.3,1.4l-0.2,1.4l-0.2,1.4l0,0.3v0.2l0,0.2v0.2l0.1,0.2l0.1,0.1
	l0.1,0.1l0.1,0.1l0.1,0.1l0.2,0.1l0.2,0.1l0.2,0.1l0.2,0.1l0.2,0h0.3l0.3,0H27h0.5l0.4,0l0.4-0.1l0.3-0.1l0.4-0.2l0.2-0.2l0.2-0.2
	l0.2-0.2l0.1-0.3l0.1-0.1l0-0.1v0l0-0.1l0.1-0.1h0h0l0.1-0.9l0.2-0.9l0.1-0.9l0.2-0.9l0.1-0.9l0.2-0.9l0.2-0.9l0.1-0.9l0.2-0.9
	l0.1-0.9l0.2-0.9l0.2-0.9l0.2-0.9l0.2-0.9l0.1-0.9l0.2-0.9l0.5,0.9l0.4,0.9l0.5,0.9l0.4,0.9l0.5,0.9l0.4,0.9l0.5,0.9l0.5,0.9
	l0.4,0.9l0.5,0.9l0.5,0.9l0.4,0.9l0.5,0.9l0.5,0.9l0.4,0.9l0.5,0.9v0h0l0.1,0.2l0.1,0.2l0.2,0.1L40,289h0l0,0l0.1,0l0.1,0l0.2,0.1
	l0.2,0.1l0.3,0h0.3l0,0h0h0.3h0.2H42h0.3l0.3,0l0.2,0l0.3,0l0.2-0.1h0.1l0,0l0.2-0.1l0.2-0.1l0.2-0.2l0.2-0.2l0,0l0.8-0.9l0.8-0.9
	l0.8-0.9l0.8-0.9l0.8-0.9l0.8-0.9l0.8-0.9l0.8-0.9l0.8-0.9l0.8-0.9l0.8-0.9l0.8-0.9l0.8-0.9l0.8-0.9l0.8-0.9l0.8-0.9l-0.2,0.9
	l-0.1,0.9l-0.2,0.9l-0.1,0.9l-0.2,0.9l-0.1,0.9l-0.2,0.9l-0.1,0.9l-0.2,0.9l-0.1,0.9l-0.2,0.9l-0.1,0.9l-0.2,0.9l-0.1,0.9l-0.2,0.9
	l-0.1,0.9l0,0.3v0.2v0.2l0,0.2l0.1,0.2l0.1,0.1l0.1,0.1l0.1,0.1l0.1,0.1l0.2,0.1l0.2,0.1l0.2,0.1l0.2,0.1l0.3,0h0.2l0.3,0h0.4H57
	l0.4,0l0.4-0.1l0.4-0.1l0.3-0.2l0.3-0.2l0.2-0.2l0.2-0.2l0.1-0.3l0-0.1l0-0.1v0h0l0-0.1v-0.1l0.2-1.4l0.2-1.4l0.3-1.4l0.2-1.4
	l0.2-1.4l0.2-1.4l0.2-1.4l0.2-1.4l0.2-1.4l0.2-1.4l0.2-1.4l0.3-1.4l0.2-1.4l0.2-1.4l0.2-1.4l0.3-1.4l0-0.2l0-0.2l0-0.2L63,265
	l-0.1-0.2l-0.1-0.2l-0.2-0.2l-0.2-0.1l-0.3-0.2l-0.4-0.1l-0.4-0.1l-0.4,0H60.7z M171.9,263.8h-0.4l-0.4,0l-0.4,0.1l-0.2,0.1
	l-0.2,0.1l-0.2,0.1l-0.2,0.1l-0.1,0.1l-0.1,0.1l-0.1,0.1l-0.1,0.1v0l-0.8,1.1l-0.8,1.1l-0.8,1.1l-0.8,1.1l-0.8,1.1l-0.8,1.1
	l-0.8,1.1l-0.8,1.1l-0.8,1.1l-0.8,1.1l-0.8,1.1l-0.8,1.1l-0.8,1.1l-0.8,1.1l-0.8,1.1l-0.8,1.1l-0.5-1.1l-0.4-1.1l-0.5-1.1l-0.5-1.1
	l-0.4-1.1l-0.5-1.1l-0.4-1.1l-0.5-1.1l-0.4-1.1l-0.5-1.1l-0.4-1.1l-0.5-1.1l-0.4-1.1l-0.5-1.1l-0.4-1.1l-0.4-1.1l-0.1-0.3l-0.2-0.3
	l-0.2-0.2l-0.2-0.2l-0.3-0.1l-0.3-0.1l-0.3,0l-0.4,0h-0.5h-0.4l-0.5,0l-0.4,0.1l-0.4,0.1l-0.3,0.2l-0.2,0.1l-0.1,0.1l-0.1,0.1
	l-0.1,0.1l-0.1,0.2l-0.1,0.2l-0.1,0.2l-0.1,0.2v0.2v0.2v0l0.1,0.2l0.1,0.2l0.6,1.4l0.5,1.4l0.6,1.4l0.6,1.4l0.6,1.4l0.5,1.4l0.6,1.4
	l0.5,1.4l0.6,1.4l0.6,1.4l0.5,1.4l0.6,1.4l0.6,1.4l0.6,1.4l0.6,1.4l0.5,1.4h0l0.1,0.3l0.2,0.3l0.2,0.2l0.2,0.2l0.3,0.1l0.3,0.1
	l0.3,0h0.4h0.2h0.3h0.3h0.2h0.5l0.4-0.1l0.2-0.1l0.2-0.1l0.2-0.1l0.2-0.1l0.1-0.1l0.1-0.1l0.1-0.1l0.1-0.1v0l0,0l1-1.3l1-1.4l1-1.4
	l1-1.4l1-1.4l1-1.4l1-1.4l1-1.4l1-1.4l1-1.4l1-1.3l1-1.4l1-1.4l1-1.4l1-1.4l1-1.4l0.1-0.1l0-0.1l0,0l0-0.1l0.1-0.2l0-0.2l0-0.3
	l0-0.2l0-0.2l0-0.2l0-0.2l-0.1-0.1l-0.1-0.1l-0.1-0.1l-0.1-0.1l-0.2-0.1l-0.2-0.1l-0.2-0.1l-0.5-0.1l-0.6,0H171.9z M217.9,263.8
	h-2.5h-2.6h-2.6h-2.5h-2.6h-2.5h-2.6l-0.3,0l-0.3,0l-0.3,0.1L199,264l-0.2,0.1l-0.2,0.1l-0.2,0.2l-0.1,0.2l-0.1,0.2l-0.1,0.2v0
	l-0.1,0.2l-0.1,0.2l-0.2,1.4l-0.2,1.4l-0.2,1.4l-0.3,1.4l-0.2,1.4l-0.2,1.4l-0.2,1.4l-0.2,1.4l-0.2,1.4l-0.2,1.4l-0.2,1.4l-0.3,1.4
	l-0.2,1.4l-0.2,1.4l-0.2,1.4l-0.2,1.4l0,0.2v0.2v0.2l0,0.2l0,0.2l0.1,0.1l0.1,0.1l0.1,0.1l0.1,0.1l0.1,0.1l0.2,0.1l0.2,0.1l0.2,0.1
	l0.2,0h0.3h0.3h2.6h2.6h2.6h2.6h2.6h2.6h2.6h2.6h0.3l0.3,0l0.3-0.1l0.3-0.1l0.1,0l0.1-0.1l0.1,0l0.1,0l0,0h0l0.2-0.2l0.2-0.2
	l0.2-0.2l0.1-0.2l0,0v0l0-0.1l0.1-0.1l0-0.1v-0.1l0.1-0.3l0.1-0.3v-0.3l0-0.3l-0.1-0.3l-0.1-0.3v0v0l-0.1-0.1l-0.1-0.1l-0.1-0.1
	l-0.1-0.1l0,0l-0.3-0.2l-0.4-0.2l-0.2-0.1l-0.2,0l-0.2,0h-0.2h-2.2h-2.2h-2.2h-2.2h-2.2H204h-2.2h-2.2l0.1-0.9l0.2-0.8l0.1-0.9
	l0.2-0.9l0.1-0.9l0.2-0.9l0.2-0.8l0.1-0.9h1.9h1.9h1.9h1.9h1.9h1.9h1.9h1.9l0.3,0l0.3,0l0.2-0.1l0.1,0h-0.1h-0.1l-0.2,0l-0.1,0
	l-0.1-0.1l-0.1-0.1l-0.1-0.1l1,0.3h0h0l0.1-0.1l0.1,0l0.1-0.1l0.1,0l0,0l0.2-0.2l0.2-0.2l0.1-0.2l0.1-0.2l0-0.1l0.1-0.1v-0.1l0-0.1
	l0.1-0.3l0-0.3l0-0.2v-0.3v-0.2l0-0.2l-0.1-0.2l-0.1-0.1l-0.1-0.1l-0.1-0.1l-0.1-0.1l-0.2-0.1l-0.2-0.1l-0.2-0.1l-0.4-0.1h-0.6h-1.9
	h-1.9h-1.9h-1.9h-1.9h-1.9h-1.9h-1.9l0.1-0.8l0.1-0.7l0.1-0.8l0.1-0.7l0.1-0.8l0.1-0.7l0.1-0.8l0.1-0.7h2.2h2.2h2.2h2.2h2.2h2.2h2.2
	h2.2l0.3,0l0.3,0l0.3-0.1l0.2-0.1v0h0.1l0.1,0l0.1-0.1l0.1,0l0.1,0v0h0l0.3-0.3l0.3-0.3l0.1-0.1l0.1-0.2l0.1-0.2l0.1-0.2l0-0.3
	l0.1-0.3l0-0.2v-0.2l0-0.2l0-0.2h0v0l-0.2-0.3l-0.2-0.3l0,0l0,0l-0.1-0.1l-0.2-0.1l-0.2-0.1l-0.2-0.1l-0.4-0.1l-0.4,0H217.9z
	 M247.9,263.8h-0.3l-0.5,0l-0.5,0.1l-0.4,0.1l-0.3,0.1l-0.2,0.1l-0.2,0.1l-0.2,0.1l-0.1,0.2l-0.1,0.1l-0.1,0.2l-0.1,0.2l-0.1,0.2
	l-0.2,1.4l-0.2,1.4l-0.3,1.4l-0.2,1.4l-0.2,1.4l-0.2,1.4l-0.2,1.4l-0.2,1.4l-0.2,1.4l-0.2,1.4l-0.2,1.4l-0.2,1.4l-0.2,1.4l-0.2,1.4
	l-0.2,1.4l-0.2,1.4l0,0.2v0.2v0.2l0,0.2l0.1,0.2l0.1,0.1l0.1,0.1l0.1,0.1l0.2,0.1l0.2,0.1l0.2,0.1l0.2,0.1l0.5,0.1h0.6h0.3h0.3h0.3
	l0.3,0l0.3-0.1l0.3-0.1l0.2-0.1l0.2-0.1l0.2-0.2l0.2-0.2l0.1-0.2l0.1-0.2l0.1-0.2l0.1-0.2l0.2-1.4l0.2-1.4l0.2-1.4l0.2-1.4l0.2-1.4
	l0.2-1.4l0.3-1.4l0.2-1.4l0.2-1.4l0.2-1.4l0.2-1.4l0.2-1.4l0.2-1.4l0.3-1.4l0.2-1.4l0.2-1.4l0-0.3v-0.2v-0.2l0-0.2l0-0.2l-0.1-0.1
	l-0.1-0.1l-0.1-0.1l-0.1-0.1l-0.2-0.1l-0.2-0.1l-0.2-0.1l-0.5-0.1l-0.6,0H247.9z M287.5,263.6l-1.4,0.1l-1.3,0.1l-1.2,0.2l-1.1,0.3
	l-1.1,0.3l-0.5,0.1l-0.5,0.2l-0.5,0.2l-0.5,0.2l-0.4,0.2l-0.4,0.3l-0.4,0.2l-0.4,0.3l-0.3,0.3l-0.3,0.3l-0.3,0.3l-0.3,0.3l-0.3,0.4
	l-0.2,0.4l-0.2,0.4l-0.2,0.4l-0.2,0.4l-0.1,0.4l-0.1,0.4l-0.1,0.4v0l-0.1,0.5l0,0.5v0.4l0.1,0.5l0.1,0.4l0.1,0.4l0.2,0.4l0.2,0.4
	l0.3,0.4l0.3,0.4l0.3,0.3l0.4,0.3l0.4,0.3l0.5,0.3l0.5,0.3l0.6,0.3l0.9,0.3l1.1,0.3l1.3,0.3l1.5,0.3l0.3,0.1l0.3,0.1l0.3,0l0.3,0.1
	l0.3,0.1l0.3,0l0.4,0.1l0.4,0.1h0h0h0l0.9,0.2l1,0.2l0.9,0.1l1,0.2l0.5,0.1l0.5,0.1l0.4,0.1l0.4,0.1h0l0.6,0.2l0.5,0.2l0.5,0.2
	l0.4,0.2l0.1,0.1l0.1,0.1l0,0l0.1,0.1l0,0l0.1,0.1l0.1,0.2l0.1,0.1l0.1,0.2l0.1,0.2v0.3v0.2l0,0.3l0,0.2l-0.1,0.2l-0.1,0.2l-0.1,0.2
	l-0.2,0.4l-0.3,0.3l-0.4,0.3l-0.5,0.3l-0.5,0.3l-0.6,0.2l-0.5,0.1l-0.5,0.1l-0.6,0.1L290,285l-0.2,0l-0.3,0l-0.8,0.1l-0.8,0.1
	l-0.9,0h-0.9h0l-1.2,0l-1.1-0.1l-1.1-0.1l-1-0.2l-0.5-0.1l-0.5-0.1l-0.4-0.1l-0.4-0.1l-0.4-0.2l-0.4-0.2l-0.3-0.2l-0.3-0.3l-0.2-0.2
	l-0.2-0.2l-0.2-0.3l-0.1-0.3l-0.1-0.3l-0.1-0.3l-0.1-0.3v-0.3l0-0.4l0.1-0.4v-0.1v-0.1l0-0.2V280h0l0-0.3l-0.1-0.3l-0.1-0.3
	l-0.2-0.2l-0.2-0.2l-0.2-0.1l-0.2-0.1l-0.3-0.1l-0.3-0.1h-0.4h-0.5h-0.4h-0.3l-0.3,0.1l-0.3,0l-0.3,0.1l-0.2,0.1l-0.2,0.2l-0.2,0.1
	l-0.2,0.2l-0.1,0.2l-0.1,0.2l-0.1,0.2l0,0.2v0l0,0.2l0,0.2l-0.1,0.6l-0.1,0.6v0.6l0.1,0.5l0.1,0.5l0.1,0.5l0.2,0.5l0.2,0.5l0.3,0.4
	l0.3,0.5l0.4,0.4l0.4,0.4l0.4,0.4l0.5,0.4l0.5,0.3l0.6,0.3l0.4,0.2l0.5,0.2l0.5,0.2l0.5,0.2l0.5,0.1l0.6,0.1l0.6,0.1l0.6,0.1
	l0.6,0.1l0.6,0.1l0.6,0.1l0.7,0l0.7,0.1l0.7,0h0.7h0.8h1.1l1.1-0.1l1.1-0.1l1-0.1l0.5-0.1l0.5-0.1l0.5-0.1l0.5-0.1l0.5-0.1l0.5-0.1
	l0.5-0.2l0.5-0.1h0l0.6-0.3l0.6-0.3l0.6-0.3l0.5-0.3l0.5-0.3l0.5-0.3l0.4-0.3l0.4-0.4l0.4-0.4l0.3-0.4l0.3-0.4l0.3-0.4l0.2-0.4
	l0.2-0.5l0.1-0.5l0.1-0.5l0.1-0.4l0-0.3v-0.4v-0.3v-0.3l0-0.3l-0.1-0.3l-0.1-0.3l-0.1-0.3l-0.1-0.3l-0.1-0.3l-0.1-0.3l-0.2-0.3
	l-0.2-0.3l-0.2-0.3l-0.2-0.2l-0.4-0.4l-0.4-0.3l-0.4-0.3l-0.5-0.3l0,0l-0.5-0.3l-0.6-0.2l-0.7-0.3l-0.8-0.2l-0.9-0.3l-0.9-0.2
	l-1-0.2l-1.1-0.2l-0.5-0.1l-0.5-0.1l-0.5-0.1l-0.5-0.1l-0.5-0.1l-0.5-0.1l-0.5-0.1l-0.5-0.1h0l-1.4-0.2l-1.2-0.2l-1-0.2l-0.8-0.2
	l-0.2-0.1l-0.2-0.1l-0.2,0l-0.1-0.1h-0.1v0l-0.4-0.2l-0.3-0.2l-0.2-0.2l-0.2-0.2l-0.1-0.2l-0.1-0.2l0-0.3l0-0.3l0.1-0.4l0.1-0.4
	l0.2-0.3l0.3-0.3l0.3-0.3l0.4-0.3l0.4-0.2l0.5-0.2l0.6-0.2l0.6-0.1l0.7-0.1l0.7-0.1l0.8-0.1l0.8-0.1l0.9,0h0.9h0.5h0.5l0.5,0h0.5
	l0.4,0h0.4l0.4,0l0.4,0.1h0l0.7,0.1l0.7,0.1l0.6,0.2l0.5,0.3l0.2,0.1l0.2,0.2l0.2,0.1l0.2,0.2l0.1,0.1l0.1,0.2l0.1,0.2l0.1,0.2
	l0.1,0.2l0.1,0.2l0,0.2l0,0.2l0,0.4l0,0.4v0l0,0.2v0.2l0,0.2l0,0.2l0.1,0.2l0.1,0.1l0.1,0.1l0.1,0.1l0.1,0.1l0.2,0.1l0.2,0.1
	l0.2,0.1l0.4,0.1h0.5h0.5h0.5h0.4l0.4-0.1l0.3-0.1l0.3-0.2l0.2-0.1l0.1-0.1l0.1-0.1l0.1-0.1l0.1-0.2l0.1-0.1l0.1-0.2l0-0.2v-0.1v0
	l0.1-0.5l0-0.5v-0.5l0-0.5l-0.1-0.4l-0.1-0.5l-0.1-0.4l-0.2-0.4l-0.2-0.4l-0.2-0.4l-0.3-0.4l-0.3-0.3l-0.3-0.3l-0.4-0.3l-0.4-0.3
	l-0.4-0.3l-0.4-0.3l-0.4-0.2l-0.5-0.2l-0.5-0.2l-0.5-0.2l-0.6-0.2l-0.6-0.1l-0.6-0.1l-0.6-0.1l-0.6-0.1l-0.7-0.1l-0.7-0.1l-1.5-0.1
	l-1.6,0H287.5z M108.5,257.2L108.5,257.2L108.5,257.2z M99.8,285.3l-0.8-0.1l-0.8-0.1l-0.6-0.1l-0.6-0.1l-0.6-0.2l-0.6-0.2l-0.5-0.2
	l-0.5-0.3l-0.5-0.3l-0.5-0.3l-0.3-0.2l-0.3-0.2l-0.3-0.2l-0.2-0.2l-0.4-0.4l-0.3-0.5l-0.3-0.5l-0.3-0.5l-0.2-0.5l-0.1-0.6L91,279
	l-0.1-0.6v-0.6l0-0.6l0.1-0.6l0.1-0.6l0.2-0.6l0.2-0.6l0.2-0.6l0.3-0.6l0.2-0.4l0.2-0.4l0.3-0.4l0.3-0.4l0.3-0.3l0.3-0.3l0.3-0.3
	l0.3-0.3l0.4-0.3l0.4-0.3l0.4-0.3l0.4-0.2l0.8-0.4l0.9-0.4l0.8-0.3l0.9-0.3l0.4-0.1l0.4-0.1l0.4-0.1l0.4-0.1l0.4-0.1l0.4,0l0.4-0.1
	l0.4,0h0l0.9-0.1l0.9-0.1h1l1,0l1,0.1l1,0.1l0.9,0.2l0.9,0.3l0.4,0.1l0.3,0.1l0.3,0.1l0.3,0.1l0.3,0.2l0.3,0.2l0.3,0.2l0.3,0.2v0
	l0.5,0.4l0.5,0.5l0.4,0.5l0.3,0.5l0.2,0.4l0.2,0.5l0.1,0.5l0.1,0.5l0.1,0.5v0.5v0.5l0,0.5l-0.1,0.5l-0.1,0.5l-0.2,0.5l-0.2,0.5
	l-0.2,0.5l-0.2,0.5l-0.2,0.5l-0.3,0.5l-0.3,0.5l-0.3,0.5l-0.4,0.5l-0.4,0.4l-0.4,0.4l-0.4,0.4l-0.4,0.3l-0.4,0.3l-0.6,0.4l-0.7,0.4
	l-0.7,0.3l-0.7,0.3l-0.8,0.3l-0.8,0.3l-0.8,0.2l-0.8,0.1l-0.8,0.1l-0.8,0.1l-0.8,0.1h-0.8h-0.9L99.8,285.3z M108.5,257.2
	L108.5,257.2L108.5,257.2l-0.5,0l-0.5,0.1l-0.2,0.1l-0.3,0.1l-0.2,0.1l-0.3,0.1l-0.8,0.6l-0.8,0.5l-0.8,0.5l-0.8,0.5l-0.8,0.6
	l-0.8,0.5l-0.8,0.5l-0.8,0.5l-0.2,0.2l-0.2,0.1l-0.1,0.2l-0.1,0.1L100,263l0,0.3l0,0.2l0,0.3v0l0,0.1l-1,0.2l-1,0.3l-1,0.3l-1,0.3
	l-1,0.4l-0.9,0.4l-0.9,0.5l-0.9,0.5l-0.4,0.3l-0.4,0.3l-0.4,0.3l-0.4,0.3l-0.3,0.3l-0.4,0.3l-0.3,0.4l-0.3,0.3l0,0l-0.4,0.5
	l-0.4,0.5l-0.4,0.5l-0.3,0.5l-0.3,0.5l-0.3,0.5l-0.3,0.6l-0.2,0.5l-0.3,0.8l-0.2,0.8l-0.2,0.8l-0.2,0.8l-0.1,0.8l0,0.8v0.8l0.1,0.8
	l0.1,0.8l0.2,0.8l0.2,0.8l0.3,0.7l0.4,0.7l0.4,0.7l0.2,0.3l0.2,0.3l0.3,0.3l0.3,0.3l0.3,0.3l0.4,0.4l0.4,0.3l0.4,0.3l0.4,0.3
	l0.4,0.3l0.5,0.3l0.5,0.3l0.9,0.4l0.9,0.4l1,0.3l1,0.3l1,0.2l1,0.1l1,0.1l1.1,0.1l1,0h1.1l1.1,0l1-0.1l1-0.1l1.1-0.2l1-0.3l1-0.2
	l0.8-0.2l0.8-0.3l0.8-0.3l0.7-0.3l0.7-0.4l0.7-0.4l0.7-0.4l0.7-0.4v0l0.7-0.5l0.6-0.5l0.6-0.6l0.6-0.6l0.6-0.7l0.5-0.7l0.5-0.7
	l0.4-0.8l0.4-0.7l0.3-0.7l0.3-0.7l0.3-0.7l0.2-0.7l0.2-0.8l0.1-0.7l0.1-0.8l0.1-0.8v-0.8l-0.1-0.7l-0.1-0.8l-0.2-0.7l-0.2-0.7
	l-0.3-0.7l-0.3-0.7l-0.3-0.4l-0.3-0.5l-0.3-0.4l-0.4-0.4l-0.4-0.4l-0.5-0.4l-0.5-0.4l-0.5-0.4l-0.5-0.3l-0.5-0.3l-0.5-0.3l-0.6-0.3
	l-0.6-0.3l-0.6-0.2l-0.6-0.2l-0.6-0.2l-0.5-0.1l-0.5-0.1l-1-0.2l-1-0.2l-1-0.1l-1.1-0.1l0.9-0.6l0.9-0.6l0.8-0.6l0.9-0.6l0.2-0.2
	l0.2-0.2l0.2-0.3l0.2-0.3v0l0,0l0.1-0.3l0.1-0.3v0v0v0v-0.1v0v0v0v0v-0.2l-0.1-0.2l0-0.2l-0.1-0.1l-0.2-0.3l-0.2-0.3l-0.3-0.2
	l-0.3-0.1l-0.3-0.1l-0.3-0.1l-0.2,0l-0.2,0l-0.2,0H108.5z"/>
</svg>
